<?xml version="1.0" encoding="UTF-8"?>
<svg id="_レイヤー_2" data-name="レイヤー 2" xmlns="http://www.w3.org/2000/svg" viewBox="0 0 105.0414566 35.1686927">
  <defs>
    <style>
      .cls-1 {
        fill: #fff;
      }
    </style>
  </defs>
  <g id="_レイヤー_1-2" data-name="レイヤー 1">
    <g>
      <g>
        <g>
          <path class="cls-1" d="m47.2516616,10.1906463c-.0283203.0188599-.0585938.0258789-.0898438.0210571-.0332031-.0046387-.0537109-.0256958-.0625-.0631714l-.4707031-.9685669-.0136719-.0561523c0-.0466919.0273438-.0747681.0839844-.0842285.3769531-.0653076.9716797-.2056885,1.7832031-.4210815.8105469-.2151489,1.3398438-.3555298,1.5888672-.4210815l.7050781-.1824951c.0830078-.0186768.1289062,0,.1376953.0561523.0195312.0655518.0097656.107666-.0273438.1263428-1.1328125.598938-2.2851562,1.1698608-3.4550781,1.7124634-.0371094.1217651-.0976562.2153931-.1796875.2807617Zm3.9121094,5.3480835l.5117188.5333862c.3027344.1873169.4550781.3228149.4550781.4070435,0,.046936-.0742188.0701904-.2207031.0701904l-.3183594-.0140381c-.5625.2713013-1.2578125.5216064-2.0869141.7509766-.8291016.229187-1.6542969.4000854-2.4746094.5123901h-.0283203c-.0449219,0-.078125-.0280762-.0957031-.0842285l-.0136719-.0280762v-.0280762c0-.0561523.0273438-.093689.0820312-.1123047.6640625-.1873169,1.28125-.4071045,1.8525391-.659729.9580078-.4022827,1.6826172-.8514404,2.1708984-1.3475342.0546875-.0561523.1103516-.0561523.1660156,0Zm-1.9355469-8.3379517c-.1572266-.289978-.4033203-.6035767-.7402344-.9404907-.3359375-.336853-.6748047-.6268311-1.015625-.8703003-.0644531-.0466919-.0742188-.0933838-.0273438-.1403198.0371094-.0467529.0878906-.0653687.1523438-.0561523.5527344.1030884,1.0078125.2504272,1.3681641.4421387.359375.1918945.6201172.3978882.7802734.6176147.1621094.2199707.2421875.4281616.2421875.6246338,0,.1403809-.0390625.2550659-.1171875.3439331-.078125.0890503-.1816406.1333618-.3105469.1333618-.0839844,0-.1621094-.0186768-.2353516-.0561523-.0556641-.0092163-.0878906-.0421143-.0966797-.0982666Zm5.2666016-.491272c.2304688.6737671.6513672,1.2282104,1.2646484,1.6633301.6132812.4351807,1.5371094.7744751,2.7714844,1.0177002.0644531.0188599.0976562.0515137.0976562.0982666,0,.0655518-.0371094.1030884-.1113281.1123047-.1748047.0374756-.3105469.0982666-.4082031.1824341-.0957031.0842285-.1679688.2105713-.2138672.3790283-.0273438.0655518-.0732422.0936279-.1376953.0842285-.6083984-.1776733-1.1386719-.397644-1.5898438-.659729.1386719.0936279.28125.2129517.4277344.3579102.1484375.1452026.2402344.2597046.2773438.3439331.0273438.046936.0175781.0936279-.0273438.1403809-.1210938.1030273-.2724609.168396-.4570312.1964722v1.642334c.0185547,1.151001.0556641,2.1897583.1113281,3.1162109,0,.0561523-.0195312.1030884-.0556641.1403809-.0830078.0842285-.203125.1591797-.359375.2245483-.1572266.0656128-.2958984.0982666-.4150391.0982666h-.0273438c-.0742188,0-.1113281-.0372925-.1113281-.1123047v-.4491577h-5.75v.4351196c0,.0561523-.0810547.1217651-.2421875.1965332-.1611328.0750122-.3242188.1123047-.4902344.1123047-.0644531,0-.1201172-.0280762-.1660156-.0842285-.046875-.0561523-.0693359-.121521-.0693359-.1965332.0458984-.5239258.078125-1.225769.0966797-2.1055298v-1.2071533c0-1.104126-.0507812-2.0119019-.1523438-2.7232056v-.0280151c0-.0372925.0117188-.060791.0351562-.0701904.0234375-.0092163.0527344-.0046387.0898438.0140381l.953125.4631958h5.5576172l.2216797-.3088379c.0273438-.0372314.0732422-.1004028.1376953-.1894531.0644531-.0888672.1240234-.1333618.1796875-.1333618l.0830078.0280762c-.4697266-.3088379-.8388672-.6689453-1.1054688-1.0808716-.2675781-.4116821-.4707031-.8748779-.6083984-1.3896484-.2587891.7955322-.7138672,1.4061279-1.3681641,1.8318481-.6552734.4259033-1.5488281.7417603-2.6826172.9474487h-.0273438c-.0556641,0-.0927734-.0280762-.1103516-.0842285v-.0420532c0-.0653687.0273438-.1029053.0820312-.1123047.9775391-.2807617,1.71875-.6408691,2.2265625-1.0808716.5058594-.4397583.8574219-1.0292969,1.0507812-1.7686157h-1.4521484c-.5253906.5333862-1.0869141.9452515-1.6865234,1.2352295-.0546875.0280762-.1054688.0188599-.1523438-.0280762v-.0140381c-.0371094-.0653687-.03125-.1168823.0136719-.1544189.1386719-.1123047.2675781-.229187.3876953-.3508911.3037109-.3088379.578125-.6970215.8222656-1.1651001.2441406-.4678345.4033203-.8983765.4775391-1.2913818.0175781-.0747681.0644531-.0982666.1376953-.0701904.8486328.2526855,1.2724609.430542,1.2724609.5333862,0,.0280762-.0371094.0515747-.1113281.0701904l-.2207031.0421143c-.2216797.3276978-.4101562.5849609-.5664062.7720337h4.4785156l.234375-.3228149c.0273438-.0372925.0761719-.1004639.1455078-.1895142.0693359-.0888672.1318359-.1333618.1865234-.1333618.0742188,0,.2236328.1263428.4492188.3789673.2265625.2526855.3710938.4540405.4355469.6036377.0185547.0655518.0039062.1123047-.0410156.1403198-.0742188.0375366-.2265625.0656128-.4570312.0842285-.1660156.1779175-.3867188.3790283-.6630859.6036377-.2763672.2245483-.5341797.4118652-.7744141.5614624-.0458984.0280762-.0966797.0280762-.1523438,0-.0732422-.0467529-.0917969-.0934448-.0546875-.1403809.2675781-.4397583.4785156-.828186.6357422-1.1650391h-2.3222656Zm-4.7138672,4.9550171h5.75v-1.1651001h-5.75v1.1651001Zm0,1.6002197h5.75v-1.1791382h-5.75v1.1791382Zm0,1.6282349h5.75v-1.2071533h-5.75v1.2071533Zm3.5527344,1.1089478v-.0140381c.0087891-.0280762.0253906-.0513306.0488281-.0701904.0224609-.0186157.0527344-.0232544.0898438-.0140381,1.078125.0750122,1.9492188.1965332,2.6123047.3649902.6630859.168396,1.1357422.3533325,1.4169922.5544434s.421875.3952026.421875.5825195c0,.1123047-.0488281.2035522-.1455078.2737427s-.2138672.1052856-.3525391.1052856c-.1660156,0-.3222656-.046936-.4707031-.1403809-.3769531-.2807617-.8681641-.5523071-1.4716797-.8141479-.6035156-.2619019-1.2880859-.491272-2.0527344-.6878052-.0830078-.0186768-.1152344-.0653687-.0966797-.1403809Z"/>
          <path class="cls-1" d="m66.632521,9.9098846c.0273438-.0466919.0664062-.1052856.1171875-.1754761.0507812-.0701294.0917969-.1239014.125-.161377.03125-.0372925.0664062-.0561523.1035156-.0561523.0820312,0,.2578125.1146851.5253906.3438721.2666016.2294312.4326172.4094849.4970703.5404663.0087891.046936.0087891.0936279,0,.1403198-.0556641.1030884-.1660156.1544189-.3320312.1544189h-2.2802734v.9404907c.7919922.2340088,1.375.5358276,1.7480469.9053955.3730469.369751.5605469.7229004.5605469,1.0597534,0,.1498413-.0371094.2715454-.1113281.3649902-.0742188.0936279-.1699219.1403809-.2900391.1403809-.0927734,0-.1796875-.0232544-.2626953-.0701904-.0185547-.0092163-.0507812-.0467529-.0966797-.1123047-.1015625-.3274536-.2998047-.6807861-.5947266-1.0598145-.2949219-.3789673-.6132812-.7088623-.953125-.989563v2.2318726c.0175781,1.1604614.0546875,2.2366943.1103516,3.2284546,0,.0467529-.0146484.0888672-.0419922.1263428-.0742188.1028442-.1796875.1895142-.3173828.2597046-.1386719.0701904-.2763672.1052856-.4150391.1052856-.0742188,0-.140625-.0280762-.2001953-.0842285s-.0898438-.1217651-.0898438-.1965332c.0361328-.5147705.0664062-1.0222778.0898438-1.5230103.0224609-.5004883.0390625-1.1345825.0478516-1.9019775v-1.8669434c-.6171875,1.3102417-1.4189453,2.4191895-2.4042969,3.3267822-.0566406.0560913-.1064453.0515137-.1523438-.0140381l-.0136719-.0140381c-.046875-.0467529-.0507812-.1029053-.0136719-.168457.4882812-.6362915.9160156-1.3567505,1.2851562-2.1616821.3681641-.8047485.6640625-1.6469116.8847656-2.5266724h-.71875c-.3867188.0094604-.7695312.0656128-1.1484375.168457-.0732422.0188599-.1191406,0-.1376953-.0561523l-.2490234-.491272c-.0087891-.0092163-.0136719-.0280762-.0136719-.0561523,0-.0467529.0322266-.0701904.0976562-.0701904.5058594.046936,1.0683594.0795898,1.6855469.0982666h.8984375v-2.47052c0-1.0198975-.0507812-1.932251-.1523438-2.7371826v-.0280762c0-.0748291.0419922-.0982666.125-.0701904.4511719.1403809.765625.2526855.9394531.336853.1757812.0842285.2636719.1592407.2636719.2246094,0,.0561523-.0419922.1077271-.125.1544189l-.234375.1544189v4.4356689h.9951172l.2490234-.3790283Zm-4.4511719-3.6495972c.0087891-.0280762.0224609-.0466919.0410156-.0561523.0644531-.0186157.1152344-.0092163.1523438.0280762.4785156.3743896.8291016.7579956,1.0507812,1.151062.2207031.3930054.3310547.7487793.3310547,1.0667725,0,.2153931-.0439453.3860474-.1308594.5123901-.0878906.1262817-.1962891.1894531-.3251953.1894531-.0917969,0-.1933594-.0421143-.3046875-.1263428-.0361328-.0372314-.0546875-.0841675-.0546875-.1403198-.0185547-.383606-.0996094-.8071289-.2421875-1.2703857-.1425781-.4631958-.3105469-.8864746-.5039062-1.2703247-.0195312-.0280762-.0234375-.0561523-.0136719-.0842285Zm4.4648438-.2105713l.6777344.2807617c.3671875.0936279.5527344.1824951.5527344.2667236,0,.046936-.046875.0936279-.1386719.1403809l-.2207031.0982056c-.5351562,1.0481567-.9912109,1.8577271-1.3691406,2.4284058-.0458984.0561523-.0966797.0701904-.1523438.0421143l-.0410156-.0140381c-.0546875-.0280762-.0742188-.0794067-.0546875-.1544189l.0820312-.2526245c.1201172-.4116821.2285156-.874939.3251953-1.3897095.0966797-.5145264.1630859-.9731445.2001953-1.3756104.0185547-.0747681.0644531-.0982666.1386719-.0701904Zm6.3310547,6.5974121c.0185547-.0467529.0478516-.1193237.0898438-.2175903s.078125-.1730347.1103516-.2246094c.0322266-.0513306.0664062-.0772095.1035156-.0772095.0556641,0,.1777344.0561523.3671875.168457.1884766.1123047.3632812.2340088.5253906.3649902.1601562.1311035.2412109.2293701.2412109.2947388,0,.0750122-.0253906.1403809-.0761719.1965332-.0498047.0561523-.1171875.0936279-.2001953.1123047l-1.7148438.3930054v1.2773438c.0283203,1.0576172.0605469,1.8529053.0976562,2.3862915,0,.0561523-.0136719.1029053-.0410156.1403809-.0654297.0934448-.1689453.1776733-.3115234.2526855-.1435547.0747681-.2841797.1123047-.421875.1123047-.0830078,0-.1513672-.0280762-.2070312-.0842285s-.0830078-.1217651-.0830078-.1965332c.0546875-.7860718.0917969-1.5721436.1103516-2.3582153v-1.3334961l-3.7460938.8422241h-.0419922c-.0371094,0-.0683594-.0232544-.0957031-.0701904l-.0703125-.1544189c-.0087891-.0092163-.0136719-.0280762-.0136719-.0561523,0-.0466919.0283203-.0747681.0839844-.0842285l3.8837891-.8983765v-5.6147461c0-1.0198975-.0507812-1.932251-.1513672-2.7371826v-.0280762c0-.0748291.0410156-.0982666.1240234-.0701904.4599609.1403809.7802734.2550659.9599609.3438721.1796875.0890503.2695312.1662598.2695312.2316284,0,.046936-.0361328.093689-.109375.1403809l-.2363281.1544189v7.3834229l.3603516-.0842285.1933594-.5053101Zm-4.8105469-2.9898682c.0361328-.0467529.0869141-.0653687.1513672-.0561523.765625.168396,1.3320312.4210815,1.7011719.7579956.3681641.336853.5527344.6645508.5527344.9825439,0,.1498413-.0371094.269104-.1113281.3579712-.0732422.0890503-.1699219.1333618-.2890625.1333618-.0927734,0-.1757812-.0186768-.25-.0561523-.0361328-.0186768-.0683594-.0561523-.0957031-.1123047-.1210938-.3088379-.3339844-.6362915-.6425781-.982605-.3095703-.3460693-.6386719-.6408691-.9892578-.8843384-.0644531-.0466919-.0732422-.0933838-.0273438-.1403198Zm.3310547-3.284668c.046875-.0466919.0927734-.0561523.1386719-.0280762.7285156.1965332,1.2695312.4656372,1.625.8071289.3535156.3417358.53125.6715698.53125.989624,0,.1497803-.0371094.269104-.1103516.3579102-.0732422.0890503-.1708984.1333618-.2900391.1333618-.1015625,0-.1894531-.0232544-.2626953-.0701904-.0458984-.0186157-.0732422-.0561523-.0830078-.1123047-.1015625-.3087769-.296875-.6408691-.5878906-.996582-.2900391-.3555298-.6015625-.6690063-.9326172-.9404907-.0742188-.0372925-.0830078-.0842285-.0283203-.1403809Z"/>
          <path class="cls-1" d="m79.1559585,8.1131927c-.4511719.0093994-.9072266.0655518-1.3681641.168396-.0732422.0188599-.1201172,0-.1376953-.0560913l-.2353516-.491333c-.0087891-.0092163-.0136719-.0280762-.0136719-.0561523,0-.0466919.0322266-.0701904.0966797-.0701904.5058594.046936,1.0683594.0796509,1.6865234.0982666h1.9072266l.2490234-.3789673c.0283203-.0372925.0673828-.0934448.1181641-.168457.0498047-.0747681.09375-.1309204.1308594-.168457.0371094-.0372925.0742188-.0561523.1103516-.0561523.0732422,0,.2421875.1171265.5048828.3509521.2626953.2340088.4257812.4165039.4902344.5474243.0097656.046936.0097656.0890503,0,.1263428-.0546875.1030884-.1660156.1544189-.3320312.1544189h-3.2070312Zm-.2617188,8.7730713l.0410156.5053101c.0097656.0467529.0039062.0934448-.0136719.1403809-.0644531.0747681-.1621094.1425781-.2910156.2035522-.1289062.06073-.2666016.0912476-.4140625.0912476-.0546875,0-.1035156-.0280762-.1445312-.0842285-.0419922-.0561523-.0625-.1217651-.0625-.1965332.0361328-.3838501.0644531-.8608398.0820312-1.4317627v-.8703003c0-.982605-.0458984-1.8153687-.1376953-2.4985962v-.0280762c0-.0372314.0087891-.06073.0283203-.0701294.0175781-.0092163.0449219-.0046387.0820312.0140381l.8984375.4210815h1.8388672l.2080078-.2526855c.0273438-.0280762.0703125-.0794067.1308594-.1544189.0595703-.0747681.1171875-.1122437.1728516-.1122437.0830078,0,.2490234.0960693.4970703.2877197.2490234.1919556.4013672.3487549.4570312.4702759.0273438.0374756.0175781.0795898-.0283203.1262817-.1103516.1123047-.2724609.1824951-.4833984.2105713v1.1229858c.0273438.9077759.0546875,1.6001587.0820312,2.0774536,0,.0561523-.0175781.1028442-.0546875.1403809-.0742188.0747681-.1845703.1425171-.3320312.2034912-.1464844.060791-.28125.0912476-.4003906.0912476-.0917969,0-.1474609-.0701904-.1660156-.2105103l.0136719-.1403809c0,.0092163.0097656-.0328979.0273438-.1263428v-.2526855h-2.03125v.322876Zm1.7412109-11.3137817c.0371094-.0466919.0732422-.0982666.1103516-.1544189s.0761719-.1074829.1171875-.1544189c.0419922-.0466919.0810547-.0701294.1181641-.0701294.0732422,0,.2421875.1146851.5048828.3438721.2617188.2294312.4257812.4049072.4902344.5263672.0097656.046936.0097656.093689,0,.1403809-.0546875.1030884-.1611328.1544189-.3183594.1544189h-1.3125c-.5898438.0094604-1.2490234.0701904-1.9765625.1824951h-.0419922c-.0361328,0-.0693359-.0232544-.0966797-.0701904l-.2480469-.5053101c-.0097656-.0092163-.0146484-.0280762-.0146484-.0561523,0-.0467529.0322266-.0701904.0966797-.0701904.4609375.046936.9726562.0795898,1.5351562.0982666h.8007812l.2353516-.3649902Zm.1943359,3.5794067c.0361328-.0466919.0898438-.1168823.1582031-.2105103.0693359-.0934448.1308594-.1403809.1865234-.1403809.0732422,0,.2255859.1030884.4560547.3087769.2304688.2059937.3730469.369812.4287109.491333.0087891.046936.0087891.0936279,0,.1403198-.0556641.1030884-.1572266.1544189-.3037109.1544189h-1.3828125c-.5898438.0094604-1.2480469.0701904-1.9765625.1824951h-.0410156c-.0371094,0-.0703125-.0232544-.0976562-.0701904l-.234375-.491272c-.0097656-.0092163-.0136719-.0280762-.0136719-.0561523,0-.0467529.03125-.0701904.0957031-.0701904.4980469.046936,1.046875.0795898,1.6455078.0982666h.8427734l.2363281-.3369141Zm0,1.7827148c.0361328-.0467529.0898438-.1168823.1582031-.2105713.0693359-.0934448.1308594-.1403809.1865234-.1403809.0732422,0,.2255859.1052856.4560547.3158569s.3730469.37677.4287109.498291c.0087891.046936.0087891.093689,0,.1403809-.0556641.1030884-.1572266.1544189-.3037109.1544189h-1.3828125c-.5898438.0093994-1.2480469.0701904-1.9765625.1824951h-.0410156c-.0371094,0-.0703125-.0232544-.0976562-.0701904l-.234375-.491333c-.0097656-.0092163-.0136719-.0280762-.0136719-.0561523,0-.0466919.03125-.0701294.0957031-.0701294.4980469.046875,1.046875.0795898,1.6455078.0982056h.8427734l.2363281-.3508911Zm-1.9355469,2.5687256v2.6389771h2.03125v-2.6389771h-2.03125Zm8.9023438-5.9516602c.0371094-.0466919.0732422-.0982056.1103516-.1543579.0361328-.0561523.0761719-.1074829.1181641-.1544189.0410156-.0467529.0800781-.0701904.1171875-.0701904.0820312,0,.2529297.1101074.5117188.329834.2578125.2200317.4179688.3954468.4833984.5264282.0087891.046936.0048828.0936279-.0146484.1403809-.0546875.1030273-.1650391.1543579-.3310547.1543579h-2.4326172v1.2212524h1.7412109l.2763672-.3930664c.0371094-.0466919.0800781-.1052856.1308594-.1754761.0507812-.0701294.0957031-.1239014.1318359-.161377.0371094-.0372925.0732422-.0561523.1103516-.0561523.0742188,0,.2490234.1193237.5253906.3579102.2773438.2386475.4472656.4235229.5117188.5545044.0097656.046936.0039062.0936279-.0136719.1403198-.0546875.1030884-.15625.1544189-.3046875.1544189h-4.796875c-.5898438.0094604-1.2480469.0701904-1.9765625.1824951h-.0410156c-.0371094,0-.0693359-.0232544-.0966797-.0701904l-.2353516-.5053101c-.0097656-.0092163-.0136719-.0280762-.0136719-.0561523,0-.0467529.0322266-.0701904.0966797-.0701904.5068359.046936,1.0693359.0795898,1.6865234.0982666h1.3964844v-1.2212524h-.7744141c-.4238281.0094604-.8525391.0656128-1.2861328.168457-.0732422.0188599-.1191406,0-.1376953-.0561523l-.2353516-.4772339c-.0087891-.0092163-.0136719-.0280762-.0136719-.0561523,0-.0466919.0322266-.0701904.0976562-.0701904.4599609.046936.9716797.0795898,1.5332031.0982666h.8164062v-1.151062h-.8984375c-.5527344.0094604-1.0742188.0701904-1.5625.1824951h-.0410156c-.0371094,0-.0693359-.0232544-.0976562-.0701904l-.234375-.5053101c-.0097656-.0092163-.0136719-.0280762-.0136719-.0561523,0-.0466919.03125-.0701904.0966797-.0701904.5068359.046936,1.0693359.0796509,1.6865234.0982666h1.0644531c0-.4022217-.0234375-.8141479-.0693359-1.2352295,0-.0934448.0458984-.1263428.1376953-.0982666.4335938.1403809.7324219.2504883.8984375.329834.1660156.0796509.25.1522217.25.2175903,0,.046936-.0371094.0936279-.1113281.1403809l-.234375.1544189v.491272h1.4921875l.2636719-.3789673c.0273438-.0372925.0664062-.0934448.1171875-.168457.0507812-.0748291.09375-.1309814.1308594-.168457.0371094-.0372925.0742188-.0561523.1113281-.0561523.0722656,0,.2480469.1171265.5244141.3509521.2763672.2340088.4472656.4165039.5117188.5474243.0087891.046936.0048828.0936279-.0136719.1403809-.0556641.1030884-.1660156.1543579-.3320312.1543579h-2.8056641v1.151062h1.1884766l.2490234-.3790283Zm-3.6083984,8.2817993l.0146484.5053711c.0078125.3837891.0273438.720459.0546875,1.0106201,0,.0561523-.0136719.1029053-.0410156.1403809-.0644531.0842285-.1640625.1589966-.2978516.2246094-.1337891.0653687-.2744141.0982666-.4208984.0982666-.0654297,0-.1210938-.0280762-.1660156-.0842285-.046875-.0561523-.0703125-.1217651-.0703125-.1965332.0566406-.888916.0927734-1.7732544.1113281-2.6529541v-1.473877c0-1.104126-.0507812-2.0119019-.1523438-2.7232056v-.0280762c0-.0372925.0117188-.06073.0351562-.0701904.0224609-.0092163.0527344-.0045776.0898438.0140381l.9121094.4492188h3.3867188l.1796875-.2807617c.0273438-.0280762.0605469-.0701904.0966797-.1263428s.0693359-.0958252.0966797-.1193237c.0273438-.0232544.0605469-.0350952.0976562-.0350952.0820312,0,.2597656.100708.53125.3018188.2714844.201355.4404297.3673706.5048828.498291.0273438.0375366.0185547.0796509-.0283203.1263428-.1289062.1030884-.2988281.1732788-.5107422.2105713v4.9269409c0,.2619019-.0234375.4748535-.0693359.6386719-.0458984.1636353-.1503906.2993774-.3105469.4071045-.1621094.1074829-.3984375.1846924-.7128906.2316284h-.0273438c-.0458984,0-.078125-.0328979-.0966797-.0982666-.0458984-.2715454-.1240234-.4586182-.2353516-.5615234-.1289062-.1311035-.390625-.2385864-.7871094-.3228149-.0644531-.0094604-.0976562-.046936-.0976562-.1123047v-.0140381c0-.0653687.0283203-.0982666.0839844-.0982666.1103516,0,.2246094.0048218.3457031.0140381.1191406.0094604.234375.0188599.3457031.0280762l.4550781.0280762c.1113281,0,.1816406-.0186157.2148438-.0561523.0322266-.0372925.0488281-.1074829.0488281-.2105713v-1.4177246h-3.5810547v.828186Zm3.5810547-3.0319824v-1.3334961h-3.5810547v1.3334961h3.5810547Zm-3.5810547.4071045v1.4036865h3.5810547v-1.4036865h-3.5810547Z"/>
          <path class="cls-1" d="m103.5417007,7.495517c.0273438-.0372314.0693359-.0958252.1240234-.175415.0556641-.0794067.1035156-.1403809.1455078-.1824951s.0810547-.0631714.1171875-.0631714c.0732422,0,.2607422.1287231.5595703.3860474.2998047.2574463.4824219.4515381.546875.5825195.0087891.046936.0087891.0936279,0,.1403809-.0556641.1030273-.1660156.1543579-.3320312.1543579h-5.1015625v.8141479c.2949219,1.1229858.7148438,2.1009521,1.2578125,2.9337158.2304688-.2713013.4296875-.5193481.5957031-.7439575.2666016-.336853.5224609-.720459.7666016-1.151001.2441406-.4303589.4355469-.828186.5732422-1.1931763.0283203-.0747681.078125-.0888062.1523438-.0420532.7460938.4680176,1.1201172.7579346,1.1201172.8702393,0,.0280762-.0458984.0515747-.1386719.0701904l-.2490234.0140381c-.3125.3743896-.7109375.7838745-1.1953125,1.2282715-.484375.444519-.9648438.8491821-1.4453125,1.2141724.9130859,1.319458,2.2070312,2.3676147,3.8847656,3.1442871.046875.0280762.0693359.0561523.0693359.0842285,0,.046936-.0087891.0795898-.0273438.0982056-.0185547.0188599-.0419922.0328979-.0693359.0421143-.2949219.0842285-.515625.3088379-.6640625.6737671-.0273438.0750122-.0732422.0890503-.1376953.0421143-1.1064453-.7110596-2.0302734-1.5697021-2.7714844-2.5757446-.7421875-1.0058594-1.3154297-2.3042603-1.7216797-3.8952637v6.4429321c0,.2807617-.03125.5099487-.0957031.6878662-.0644531.1776123-.1962891.3274536-.3945312.4491577-.1982422.121521-.4902344.2057495-.8779297.2526855h-.0273438c-.0458984,0-.0791016-.0328979-.0966797-.0982666-.0644531-.2807617-.1708984-.4726562-.3183594-.5755615-.2207031-.1591797-.6035156-.2855225-1.1464844-.3789673-.0742188-.0186157-.1113281-.0561523-.1113281-.1123047v-.0140381c0-.0842285.0371094-.1168823.1113281-.0982666.0634766.0094604.1308594.0140381.1992188.0140381.0703125,0,.140625.0048218.2148438.0140381.7558594.0656128,1.1933594.0982666,1.3125.0982666.1386719,0,.2304688-.0256348.2773438-.0772095.0458984-.0513306.0683594-.1379395.0683594-.2596436v-3.8320923c-1.2158203,1.0481567-2.5751953,2.1570435-4.078125,3.3267212-.0175781.1311646-.0585938.2386475-.1230469.322876-.0195312.0280762-.0449219.039917-.0761719.0350952-.0332031-.0046387-.0585938-.0210571-.0761719-.0491333l-.7324219-.8562622c-.046875-.0653687-.0371094-.1168823.0273438-.1544189.9951172-.5145264,2.6816406-1.5065308,5.0585938-2.9758301v-3.789978h-3.0410156c-.5898438.0094604-1.2480469.0701904-1.9765625.1824951h-.0410156c-.0371094,0-.0693359-.0232544-.0976562-.0701904l-.2480469-.5053101c-.0097656-.0092163-.0136719-.0280762-.0136719-.0561523,0-.0466919.03125-.0701904.0957031-.0701904.5078125.046936,1.0703125.0795898,1.6875.0982666h3.6347656v-.0982666c0-1.0198975-.0507812-1.932251-.1513672-2.7371826v-.0280762c0-.0748291.0419922-.0982666.1240234-.0701904.8300781.2526855,1.2441406.4399414,1.2441406.5614624,0,.046936-.0371094.093689-.1103516.1403809l-.2216797.1544189v2.0774536h3.6503906l.2900391-.4211426Zm-8.6533203,1.7686768c.0361328-.0372925.0869141-.0421143.1523438-.0140381.7822266.3276978,1.3583984.7088623,1.7265625,1.144043.3691406.4351196.5537109.835144.5537109,1.2001343,0,.1778564-.0419922.3206787-.1240234.4281006-.0839844.1077271-.1894531.161438-.3183594.161438-.0917969,0-.1982422-.0372925-.3183594-.1123047-.0458984-.0186157-.0742188-.0561523-.0820312-.1123047-.1015625-.3930054-.3027344-.8257446-.6015625-1.2984009-.2998047-.4724121-.625-.8913574-.9746094-1.2562866-.046875-.0561523-.0507812-.1028442-.0136719-.1403809Zm5.75-3.7619019c.0371094-.0372925.0830078-.0513306.1386719-.0421143.71875.1498413,1.2509766.3814087,1.5957031.6948242.3457031.3136597.5195312.6246338.5195312.9334717,0,.1403809-.0371094.2575073-.1113281.3509521-.0742188.0936279-.1699219.1403198-.2900391.1403198-.0830078,0-.1611328-.0186157-.2353516-.0561523-.0371094-.0186157-.0683594-.0560913-.0957031-.1122437-.1015625-.2993774-.2929688-.6106567-.5742188-.9334717-.28125-.322876-.5830078-.6011963-.90625-.8352051-.0546875-.0466919-.0683594-.0934448-.0410156-.1403809Z"/>
        </g>
        <g>
          <path class="cls-1" d="m47.9430679,25.3008758c0-1.4924927,0-1.760376-.0195312-2.0665283-.0185547-.3253174-.09375-.4783936-.4042969-.5453491-.0761719-.019165-.2363281-.0286865-.3212891-.0286865-.0380859,0-.0751953-.019165-.0751953-.0574341,0-.057373.046875-.0765381.1503906-.0765381.4248047,0,1.0185547.0287476,1.0664062.0287476.1035156,0,.8203125-.0287476,1.1123047-.0287476.59375,0,1.2255859.0574341,1.7255859.4209595.2363281.1722412.6503906.6409912.6503906,1.3011475,0,.7080078-.2919922,1.4159546-1.140625,2.210083.7734375,1.0045166,1.4140625,1.8560181,1.9609375,2.4492188.5097656.5452881.9150391.6505127,1.1503906.6888428.1796875.0286865.3115234.0286865.3681641.0286865.046875,0,.0849609.0286865.0849609.057373,0,.0574341-.0566406.0765381-.2265625.0765381h-.6699219c-.5273438,0-.7636719-.0478516-1.0078125-.1817627-.40625-.2200317-.7363281-.6888428-1.2734375-1.4063721-.3964844-.5262451-.8398438-1.1672363-1.0283203-1.4159546-.0380859-.038269-.0654297-.0574341-.1220703-.0574341l-1.1601562-.019104c-.046875,0-.0664062.0286865-.0664062.0765381v.2296143c0,.918457,0,1.6742554.046875,2.0761108.0292969.2774048.0859375.487915.3681641.5261841.1318359.019104.3398438.038269.4248047.038269.0566406,0,.0751953.0286865.0751953.057373,0,.0478516-.0478516.0765381-.1513672.0765381-.5175781,0-1.1123047-.0286865-1.1591797-.0286865-.0097656,0-.6035156.0286865-.8867188.0286865-.1035156,0-.1513672-.019104-.1513672-.0765381,0-.0286865.0195312-.057373.0761719-.057373.0839844,0,.1972656-.019165.2832031-.038269.1875-.038269.2353516-.2487793.2734375-.5261841.046875-.4018555.046875-1.1576538.046875-2.0761108v-1.6838379Zm.7539062.8323364c0,.0478516.0195312.0861206.0664062.1148071.1416016.0861206.5751953.1530762.9902344.1530762.2265625,0,.4902344-.0286865.7070312-.1817627.3300781-.2296143.5751953-.7462769.5751953-1.4733887,0-1.1958618-.6220703-1.9134521-1.6318359-1.9134521-.2822266,0-.5371094.0287476-.6308594.0574341-.046875.019104-.0761719.057373-.0761719.1148071v3.128479Z"/>
          <path class="cls-1" d="m56.2282241,25.3008758c0-1.4924927,0-1.760376-.0195312-2.0665283-.0195312-.3253174-.09375-.4783936-.4052734-.5453491-.0664062-.019165-.1884766-.019165-.2734375-.0286865-.0664062-.0095825-.1230469-.019165-.1230469-.0574341,0-.057373.0478516-.0765381.1513672-.0765381.2167969,0,.4707031,0,1.0654297.0287476.0654297,0,1.9423828,0,2.1591797-.0095825.2070312-.0095825.3769531-.0287476.4335938-.0574341s.0761719-.038269.1035156-.038269c.0292969,0,.0380859.038269.0380859.0861206,0,.0669556-.0566406.1817627-.0751953.449646-.0097656.1434937-.0195312.3253174-.0371094.5740356-.0097656.0957031-.0390625.1626587-.0761719.1626587-.0566406,0-.0751953-.0478516-.0751953-.1243896,0-.1243286-.0185547-.2391968-.0478516-.3157349-.0654297-.2200317-.2636719-.3156738-.6777344-.3539429-.1611328-.019165-1.1894531-.0287476-1.2929688-.0287476-.0371094,0-.0566406.0287476-.0566406.0957031v2.640564c0,.0669556.0097656.0956421.0566406.0956421.1230469,0,1.2832031,0,1.5-.019104.2539062-.019104.3769531-.0478516.4707031-.1626587.0478516-.057373.0761719-.0956421.1132812-.0956421.0292969,0,.046875.019104.046875.0765381,0,.057373-.046875.2200317-.0742188.5357666-.0292969.2965698-.0292969.5166016-.0380859.6505737-.0097656.0956421-.0283203.1434937-.0664062.1434937-.0556641,0-.0654297-.0765381-.0654297-.1530762,0-.0861206-.0097656-.1817627-.0380859-.2678833-.0380859-.1434937-.1513672-.2774658-.4902344-.3157349-.2548828-.0286865-1.1884766-.0477905-1.3486328-.0477905-.046875,0-.0664062.0286865-.0664062.0669556v.8419189c0,.3252563-.0087891,1.4350586,0,1.6359863.0195312.3922729.0761719.6027222.3115234.6984253.1601562.0669556.4150391.0860596.7822266.0860596.2832031,0,.5947266-.0095215.8496094-.0860596.3007812-.0957031.4052734-.2966309.4804688-.7080078.0195312-.1052246.0371094-.1434937.0849609-.1434937.0566406,0,.0566406.0765381.0566406.1434937,0,.0765381-.0751953.7271118-.1220703.9280396-.0664062.2487183-.1425781.2487183-.5097656.2487183-.6972656,0-1.0087891-.019104-1.3769531-.0286865-.3769531-.0095215-.8105469-.0286865-1.1787109-.0286865-.2255859,0-.4521484.038269-.6982422.0286865-.1035156,0-.1503906-.019104-.1503906-.0765381,0-.0286865.046875-.0478516.1035156-.057373.0947266-.0095825.1513672-.0095825.2167969-.0286865.1982422-.0478516.3203125-.1818237.3398438-.899353.0097656-.3731079.0195312-.8610229.0195312-1.7125244v-1.6838379Z"/>
          <path class="cls-1" d="m65.7672866,29.893161c-2.6123047,0-3.6875-2.0378418-3.6875-3.7599487,0-1.5499268,1.1132812-3.7407837,3.7148438-3.7407837,2.1220703,0,3.7070312,1.368103,3.7070312,3.5877075,0,1.6838379-1.046875,2.8032227-1.6699219,3.2145996l1.9335938,1.0141602c2.0644531,1.0810547,3.4980469,1.1289062,3.9697266,1.1289062s1.2070312-.1052246,1.8583984-.3731079c.0566406-.019165.1035156-.038269.1308594-.038269.0380859,0,.0566406.0286865.0566406.057373,0,.038269-.0185547.0670166-.0742188.0957031-.5380859.2487183-1.59375.6601562-2.9902344.6601562-1.140625,0-2.3574219-.4210205-3.8847656-1.2820435l-1.5839844-.8897705c-.3398438.1818237-.9804688.3253174-1.4804688.3253174Zm2.828125-3.6451416c0-2.2961426-1.3769531-3.5303345-2.8662109-3.5303345-1.5751953,0-2.7529297,1.0524292-2.7529297,3.147644,0,2.229187,1.3193359,3.6642456,3.0175781,3.6642456.8476562,0,2.6015625-.4974976,2.6015625-3.2815552Z"/>
          <path class="cls-1" d="m73.3727554,26.6402923c0,1.3776855.3007812,1.9708252.7070312,2.3630981.4609375.4401245.8857422.5261841,1.4238281.5261841.5742188,0,1.140625-.2774658,1.4804688-.6888428.4335938-.5452881.546875-1.3585205.546875-2.3439941v-1.1958618c0-1.4924927,0-1.760376-.0195312-2.0665283-.0185547-.3253174-.09375-.4783936-.4052734-.5453491-.0751953-.019165-.2353516-.0286865-.3203125-.0286865-.0380859,0-.0751953-.019165-.0751953-.0574341,0-.057373.046875-.0765381.1503906-.0765381.4238281,0,.9433594.0287476,1,.0287476.0664062,0,.5087891-.0287476.7919922-.0287476.1035156,0,.1513672.019165.1513672.0765381,0,.038269-.0390625.0574341-.0761719.0574341-.0664062,0-.1230469.0095215-.2363281.0286865-.2539062.057373-.3300781.2104492-.3476562.5453491-.0195312.3061523-.0195312.5740356-.0195312,2.0665283v1.0236816c0,1.0332642-.1132812,2.1813354-.8671875,2.8605957-.6796875.6123047-1.3867188.7080078-1.9433594.7080078-.3203125,0-1.2724609-.038269-1.9414062-.6792603-.4628906-.449707-.8212891-1.1193848-.8212891-2.5162354v-1.3967896c0-1.4924927,0-1.760376-.0185547-2.0665283-.0195312-.3253174-.09375-.4783936-.40625-.5453491-.0742188-.019165-.234375-.0286865-.3203125-.0286865-.0371094,0-.0751953-.019165-.0751953-.0574341,0-.057373.0478516-.0765381.1513672-.0765381.4238281,0,.9990234.0287476,1.0839844.0287476s.6503906-.0287476.9335938-.0287476c.1035156,0,.1503906.019165.1503906.0765381,0,.038269-.0371094.0574341-.0742188.0574341-.0664062,0-.1230469.0095215-.2363281.0286865-.2548828.038269-.3300781.2104492-.3496094.5453491-.0175781.3061523-.0175781.5740356-.0175781,2.0665283v1.3394165Z"/>
          <path class="cls-1" d="m82.0993179,25.3008758c0-1.4924927,0-1.760376-.0195312-2.0665283-.0185547-.3253174-.09375-.4783936-.4042969-.5453491-.0664062-.019165-.1894531-.019165-.2744141-.0286865-.0654297-.0095825-.1220703-.019165-.1220703-.0574341,0-.057373.046875-.0765381.1503906-.0765381.2167969,0,.4716797,0,1.0664062.0287476.0654297,0,1.9414062,0,2.1582031-.0095825.2080078-.0095825.3779297-.0287476.4345703-.0574341s.0751953-.038269.1035156-.038269.0380859.038269.0380859.0861206c0,.0669556-.0566406.1817627-.0761719.449646-.0087891.1434937-.0185547.3253174-.0371094.5740356-.0097656.0957031-.0380859.1626587-.0761719.1626587-.0566406,0-.0742188-.0478516-.0742188-.1243896,0-.1243286-.0195312-.2391968-.0478516-.3157349-.0654297-.2200317-.2646484-.3156738-.6787109-.3539429-.1601562-.019165-1.1884766-.0287476-1.2919922-.0287476-.0380859,0-.0566406.0287476-.0566406.0957031v2.640564c0,.0669556.0087891.0956421.0566406.0956421.1220703,0,1.2822266,0,1.4990234-.019104.2548828-.019104.3769531-.0478516.4716797-.1626587.0478516-.057373.0751953-.0956421.1132812-.0956421.0283203,0,.046875.019104.046875.0765381,0,.057373-.046875.2200317-.0751953.5357666-.0283203.2965698-.0283203.5166016-.0371094.6505737-.0097656.0956421-.0292969.1434937-.0664062.1434937-.0566406,0-.0664062-.0765381-.0664062-.1530762,0-.0861206-.0097656-.1817627-.0371094-.2678833-.0380859-.1434937-.1513672-.2774658-.4902344-.3157349-.2558594-.0286865-1.1894531-.0477905-1.3496094-.0477905-.046875,0-.0654297.0286865-.0654297.0669556v.8419189c0,.3252563-.0087891,1.4350586,0,1.6359863.0185547.3922729.0751953.6027222.3115234.6984253.1601562.0669556.4140625.0860596.7822266.0860596.2832031,0,.5947266-.0095215.8486328-.0860596.3017578-.0957031.40625-.2966309.4804688-.7080078.0195312-.1052246.0380859-.1434937.0859375-.1434937.0566406,0,.0566406.0765381.0566406.1434937,0,.0765381-.0761719.7271118-.1230469.9280396-.0664062.2487183-.1416016.2487183-.5097656.2487183-.6972656,0-1.0087891-.019104-1.3769531-.0286865-.3769531-.0095215-.8105469-.0286865-1.1777344-.0286865-.2265625,0-.453125.038269-.6982422.0286865-.1035156,0-.1513672-.019104-.1513672-.0765381,0-.0286865.0478516-.0478516.1044922-.057373.0947266-.0095825.1513672-.0095825.2167969-.0286865.1982422-.0478516.3203125-.1818237.3388672-.899353.0097656-.3731079.0195312-.8610229.0195312-1.7125244v-1.6838379Z"/>
          <path class="cls-1" d="m88.4235366,29.6347992c-.1328125-.0669556-.1425781-.1052246-.1425781-.3635254,0-.4783936.0380859-.861084.0478516-1.0141602.0087891-.1052246.0283203-.1530762.0751953-.1530762.0566406,0,.0664062.0287476.0664062.1052856,0,.0861206,0,.2200317.0273438.3539429.1425781.7080078.7636719.9758911,1.3964844.9758911.9042969,0,1.3476562-.6601562,1.3476562-1.2724609,0-.6600952-.2734375-1.0427856-1.0839844-1.7221069l-.4238281-.3540039c-1-.8323364-1.2265625-1.4254761-1.2265625-2.0760498,0-1.0236816.7539062-1.7221069,1.9521484-1.7221069.3681641,0,.6416016.038269.8769531.0956421.1787109.038269.2548828.0478516.3300781.0478516s.0947266.019165.0947266.0669556c0,.0478516-.0380859.3635864-.0380859,1.0141602,0,.1530762-.0185547.2200317-.0654297.2200317-.0566406,0-.0664062-.0478516-.0761719-.1243896-.0097656-.1148071-.0664062-.3731079-.1230469-.4783325-.0566406-.1052856-.3105469-.5070801-1.1777344-.5070801-.6503906,0-1.1601562.411377-1.1601562,1.1098022,0,.5453491.2451172.8897705,1.1503906,1.6072998l.2636719.2104492c1.1132812.8897705,1.3769531,1.4829712,1.3769531,2.2483521,0,.3922729-.1503906,1.1193237-.8007812,1.5881348-.40625.2870483-.9160156.4018555-1.4248047.4018555-.4423828,0-.8769531-.0669556-1.2626953-.2583618Z"/>
          <path class="cls-1" d="m97.4909194,26.9847137c0,.918457,0,1.6742554.0478516,2.0761108.0273438.2774048.0839844.487915.3671875.5261841.1318359.019104.3398438.038269.4238281.038269.0566406,0,.0761719.0286865.0761719.057373,0,.0478516-.046875.0765381-.1513672.0765381-.5185547,0-1.1123047-.0286865-1.1591797-.0286865-.0478516,0-.6416016.0286865-.9248047.0286865-.1035156,0-.1513672-.019104-.1513672-.0765381,0-.0286865.0195312-.057373.0761719-.057373.0849609,0,.1982422-.019165.2832031-.038269.1884766-.038269.2353516-.2487793.2734375-.5261841.046875-.4018555.046875-1.1576538.046875-2.0761108v-4.046936c-.4619141.0095215-.9335938.0095215-1.3955078.019104-.5849609.0095825-.8115234.0765381-.9619141.3061523-.1035156.1626587-.1328125.2296143-.1601562.2965698-.0283203.0765381-.0566406.0957031-.0947266.0957031-.0283203,0-.046875-.0286865-.046875-.0861206,0-.0956421.1884766-.918457.2080078-.9949951.0175781-.0574341.0566406-.1817627.09375-.1817627.0664062,0,.1601562.0956421.4150391.1148071.2734375.0286865.6318359.0478516.7451172.0478516h3.5351562c.3027344,0,.5195312-.019165.6699219-.0478516.1416016-.019165.2265625-.0478516.2636719-.0478516.0478516,0,.0478516.057373.0478516.1148071,0,.2870483-.0283203.9471436-.0283203,1.0524292,0,.0860596-.0283203.1243286-.0664062.1243286-.046875,0-.0654297-.0286865-.0751953-.1626587,0-.038208-.0087891-.0669556-.0087891-.1052246-.0292969-.2869873-.2548828-.5070801-1.1601562-.5261841-.3964844-.0095825-.7929688-.0095825-1.1884766-.019104v4.046936Z"/>
        </g>
      </g>
      <g>
        <path class="cls-1" d="m31.2146284,35.1686927c-.1796601,0-.3595405-.0686936-.4964873-.2058606l-8.3770944-8.3768742c-.1332039-.1329837-.2071816-.3139649-.2058606-.5022117.0015412-.1882468.0786013-.367907.2137868-.4989092l3.3155662-3.2096636c.2754348-.266628.714017-.2633254.9850484.0081464l8.324033,8.324033c.274334.2741138.274334.7188607,0,.9929746l-3.2625049,3.2625049c-.1369468.137167-.3168271.2058606-.4964873.2058606Zm-7.3757533-9.0710757l7.3757533,7.3755332,2.2693101-2.2693101-7.3387645-7.3387645-2.306299,2.2325415Z"/>
        <path class="cls-1" d="m14.5824147,29.1650497C6.5417428,29.1650497,0,22.6233069,0,14.5826349,0,6.5417428,6.5417428,0,14.5824147,0s14.5824147,6.5417428,14.5824147,14.5826349c0,8.040672-6.5417428,14.5824147-14.5824147,14.5824147Zm0-27.760354C7.3160868,1.4046957,1.4046957,7.316307,1.4046957,14.5826349s5.9113911,13.177719,13.177719,13.177719,13.177719-5.9113911,13.177719-13.177719S21.8487427,1.4046957,14.5824147,1.4046957Z"/>
        <path class="cls-1" d="m25.7024087,15.3933073c-.3879426,0-.7023479-.3144052-.7023479-.7023479,0-5.8220013-4.7363345-10.5583358-10.5583358-10.5583358-.3879426,0-.7023479-.3144052-.7023479-.7023479s.3144052-.7023479.7023479-.7023479c6.5963454,0,11.9630315,5.3666862,11.9630315,11.9630315,0,.3879426-.3144052.7023479-.7023479.7023479Z"/>
      </g>
    </g>
  </g>
</svg>