<?xml version="1.0" encoding="UTF-8"?>
<svg id="_レイヤー_2" data-name="レイヤー 2" xmlns="http://www.w3.org/2000/svg" viewBox="0 0 105.818103 34.7536739">
  <defs>
    <style>
      .cls-1 {
        fill: #fff;
      }
    </style>
  </defs>
  <g id="_レイヤー_1-2" data-name="レイヤー 1">
    <g>
      <g>
        <g>
          <path class="cls-1" d="m56.2309181,5.2526581c.0175781-.0280762.0498047-.0747681.0957031-.1403809.046875-.0653076.0878906-.1144409.125-.1473389.0371094-.0327148.0742188-.0491333.1103516-.0491333.0732422,0,.2421875.1146851.5048828.3438721.2626953.2294312.4257812.4094849.4902344.5404053.0273438.046936.0185547.093689-.0273438.1403809-.1191406.1030884-.2949219.1824951-.5253906.2386475v3.789978c.0185547,1.1698608.0546875,2.241272.1113281,3.2144775,0,.0560913-.0195312.1030273-.0566406.1403198-.0917969.0842285-.2109375.1592407-.359375.2246094-.1464844.0655518-.2851562.0982666-.4140625.0982666-.1015625,0-.1611328-.0701904-.1796875-.2105713l.0136719-.1403809c0,.0094604.0097656-.0326538.0273438-.1262817v-.2526855h-1.3261719v3.3126831c0,.1123047.03125.1824951.0957031.2105713s.2167969.0421143.4570312.0421143h1.3408203c.71875,0,1.1376953-.0045776,1.2578125-.0140381.0830078-.0092163.140625-.0256348.1728516-.0491333.0322266-.0232544.0625-.0723877.0898438-.1473999.0742188-.1589966.1835938-.6502686.3320312-1.473877.0175781-.1495361.0371094-.2618408.0546875-.336853.0097656-.0653687.046875-.0982666.1113281-.0982666s.0957031.0374756.0957031.1123047l.0283203,1.8668823c.1376953.046936.2294922.0982666.2763672.1544189.0458984.0561523.0693359.1355591.0693359.2386475,0,.1495361-.0654297.2666626-.1943359.3508911s-.3710938.1450195-.7246094.1824951c-.3554688.0372925-.8828125.0561523-1.5839844.0561523h-1.4648438c-.3496094,0-.6152344-.0280762-.7949219-.0842285s-.3017578-.1473999-.3662109-.2737427c-.0644531-.1262817-.0966797-.3112183-.0966797-.5544434v-3.4951782h-1.5068359c-.1376953.9358521-.4052734,1.7103271-.8017578,2.3231201-.3964844.6129761-.9472656,1.1043091-1.6523438,1.473877s-1.6191406.6619263-2.7441406.8773193h-.0273438c-.0546875,0-.0917969-.0328979-.1103516-.0982666v-.0280762c0-.0561523.0283203-.093689.0830078-.1123047.9492188-.2807617,1.7167969-.6130371,2.3017578-.9966431s1.0322266-.8514404,1.3408203-1.4036865c.3085938-.552063.5185547-1.2304077.6289062-2.0353394h-1.2167969v.5614624c0,.0561523-.0761719.1217041-.2275391.1965332-.1523438.0750122-.3154297.1123047-.4912109.1123047-.0742188,0-.140625-.0280762-.2001953-.0842285s-.0898438-.121521-.0898438-.1965332c.0361328-.5426025.0673828-1.0808105.0898438-1.6142578.0224609-.5333862.0390625-1.2023315.0478516-2.0072632v-1.9511108c0-1.104126-.0507812-2.0119019-.1513672-2.7232056v-.0280762c0-.0372925.0087891-.06073.0273438-.0701904.0185547-.0092163.0458984-.0045776.0830078.0140381l.9814453.4492188h5.6679688l.2216797-.322876Zm-.0839844,2.5968628v-1.8529053h-5.875v1.8529053h5.875Zm-5.875,2.302063h5.875v-1.8950195h-5.875v1.8950195Zm5.875.4210815h-5.875v1.9230347h5.875v-1.9230347Z"/>
          <path class="cls-1" d="m71.0766212,9.3795502c.0371094-.0372925.0947266-.1029053.1738281-.1965332.078125-.0934448.1445312-.1403809.1992188-.1403809.0742188,0,.2246094.1287231.4492188.3860474.2265625.2574463.3710938.4609985.4355469.6105957.0283203.0561523.0146484.1030884-.0410156.1403809-.0830078.0374756-.2480469.0655518-.4980469.0841675-.4511719.3743896-1.1933594.828186-2.2246094,1.3616333.0644531.0188599.0820312.0609741.0546875.1262817-.0546875.1311646-.1933594.2105713-.4140625.2386475v.982605h3.6621094l.3046875-.4351807c.0273438-.0372314.0742188-.1004028.1386719-.1894531.0644531-.0888672.1171875-.1544189.1582031-.1965332.0419922-.0421143.0810547-.0631714.1181641-.0631714.0732422,0,.2666016.1333618.5810547.4000244.3125.2667236.5058594.4702759.5800781.6106567.0087891.046936.0039062.0936279-.0136719.1403198-.0556641.1030884-.1621094.1544189-.3183594.1544189h-5.2109375v2.8494873c0,.2902222-.0332031.5239868-.0976562.7018433-.0644531.1776733-.203125.3250732-.4140625.4421997-.2128906.1168823-.5302734.1987305-.9541016.2456665h-.0283203c-.0361328,0-.0732422-.0280762-.109375-.0842285-.0644531-.2807617-.1796875-.4772949-.3457031-.5895996-.2304688-.1497803-.6542969-.276123-1.2714844-.3789673-.0742188-.0188599-.1113281-.0561523-.1113281-.1123047,0-.0842285.0371094-.1168823.1113281-.0982666,1.0683594.0750122,1.7265625.1123047,1.9765625.1123047.1289062,0,.21875-.0210571.2695312-.0631714s.0761719-.1239014.0761719-.2456665v-2.7792969h-3.3046875c-.5898438.0094604-1.2480469.0701904-1.9765625.1824951h-.0410156c-.0371094,0-.0703125-.0232544-.0976562-.0701904l-.2480469-.5053101c-.0097656-.0092163-.0136719-.0280762-.0136719-.0561523,0-.0467529.03125-.0701904.0957031-.0701904.5078125.046936,1.0693359.0795898,1.6875.0982666h3.8984375c0-.5239868-.0283203-1.0012207-.0839844-1.4317627,0-.0842285.0371094-.1169434.1113281-.0982666l.7050781.1263428c.6445312-.5426636,1.1601562-1.0247192,1.5478516-1.4458008h-3.3583984c-.5908203.0093994-1.25.0701904-1.9775391.1824341h-.0283203c-.0449219,0-.0820312-.0231934-.109375-.0701904l-.25-.491272-.0136719-.0561523c0-.0466919.0332031-.0701904.0976562-.0701904.4970703.046936,1.0546875.0796509,1.671875.0982666h4.1757812l.2753906-.336853Zm2.3779297-1.9371338c.0371094-.0372925.0947266-.1028442.1728516-.1964722.078125-.0934448.1455078-.1403809.2011719-.1403809.0732422,0,.2441406.1311646.5107422.3930054.2675781.262085.4326172.4680786.4980469.6176147.0273438.0561523.0185547.1030884-.0283203.1403809-.0732422.0375366-.2255859.0656128-.4550781.0842285-.2128906.2434692-.484375.5101318-.8164062.8001099-.3320312.2901611-.640625.5333862-.9257812.7299194-.0556641.046936-.1064453.046936-.1523438,0-.046875-.0466919-.0546875-.0934448-.0273438-.1403809.3125-.5801392.5615234-1.1040649.7460938-1.5721436h-8.7636719c.0087891.4492188-.0585938.8400269-.2011719,1.1721191-.1425781.3322754-.3203125.5778809-.53125.7369385-.1943359.1497803-.3828125.2245483-.5673828.2245483-.1572266,0-.2763672-.0512695-.359375-.1543579-.0371094-.0372925-.0595703-.0794067-.0693359-.1263428-.0097656-.0280762-.0136719-.0748291-.0136719-.1403809,0-.2151489.1152344-.4022217.3457031-.5614624.2851562-.1776733.5234375-.4865112.7119141-.9264526.1884766-.4397583.2695312-.9124146.2412109-1.4177246v-.0280762c0-.0561523.0332031-.0842285.0976562-.0842285h.0273438c.0742188,0,.1152344.0280762.125.0842285.0820312.2901611.1376953.5662842.1650391.828186h5.9306641c.0371094-.0561523.0800781-.1239014.1308594-.2035522.0507812-.0794067.1083984-.1706543.1738281-.2737427.2294922-.3835449.4511719-.8070679.6630859-1.2703247.2119141-.4631958.3681641-.881897.4697266-1.2562866.0185547-.0747681.0644531-.0982666.1386719-.0701904.4785156.1873169.8105469.3322754.9951172.4351196.1845703.1030884.2763672.1824951.2763672.2386475,0,.0375366-.046875.0701904-.1386719.0982666l-.2617188.0701904c-.25.3557129-.5537109.7347412-.9130859,1.1369629-.359375.4024658-.7275391.7674561-1.1054688,1.0949097h2.4462891l.2626953-.322876Zm-8.7226562-2.4002686c.0361328-.0280762.0869141-.0327148.1523438-.0140381.6259766.262085,1.0869141.5708618,1.3818359.9263916.2949219.3557739.4433594.6878052.4433594.9966431,0,.1778564-.0449219.3206787-.1318359.4281006-.0878906.1077271-.1962891.161438-.3251953.161438-.1015625,0-.1982422-.0326538-.2900391-.0982666-.0371094-.0186157-.0644531-.0561523-.0830078-.1123047-.0644531-.336853-.2070312-.7040405-.4287109-1.1018677-.2216797-.397644-.4609375-.7461548-.71875-1.0457764-.0556641-.0561523-.0556641-.1028442,0-.1403198Zm2.9443359-.2526855h.0136719c.046875-.0280762.0976562-.0280762.1523438,0,.5712891.2901611.9882812.6154175,1.2509766.9755859.2626953.3603516.3935547.699646.3935547,1.0176392,0,.1965332-.0449219.3579712-.1376953.484314-.0927734.1262817-.2080078.1894531-.3457031.1894531-.1103516,0-.2216797-.0421143-.3310547-.1263428-.046875-.0372314-.0703125-.0841675-.0703125-.1403198-.0273438-.3555298-.1308594-.7415771-.3105469-1.1580811-.1796875-.4162598-.3886719-.7790527-.6289062-1.0878296-.0371094-.0653687-.0322266-.1169434.0136719-.1544189Z"/>
          <path class="cls-1" d="m87.5688087,5.4491913c.0458984-.0466919.1113281-.1168823.1933594-.2105713.0830078-.0934448.1523438-.1403809.2070312-.1403809.0742188,0,.2353516.1381836.484375.4141235.2490234.276123.4052734.4890747.4707031.6386719.0273438.0561523.0136719.1030884-.0419922.1403809-.0830078.0374756-.2587891.0655518-.5253906.0842285-.4150391.2901611-.9697266.6105957-1.6660156.9614868-.6962891.3509521-1.3847656.6668091-2.0664062.9475098.3779297.2434692.6542969.491272.8291016.7439575.1757812.2526855.2626953.4866943.2626953.7018433,0,.168457-.0507812.2947998-.1513672.3790283h3.1933594l.2753906-.3088379c.0283203-.0280762.0839844-.0864258.1660156-.1754761.0839844-.0888062.1572266-.1333008.2216797-.1333008.0732422,0,.2373047.1262817.4912109.3789673.2529297.2526855.4121094.4539795.4765625.6035767.0273438.0561523.0136719.1030884-.0410156.1403809-.0927734.0561523-.25.0890503-.4707031.0982666-.3408203.430542-.8085938.9147949-1.4033203,1.4528198-.5947266.538208-1.1591797.9944458-1.6933594,1.3685913-.0458984.0375366-.0966797.0375366-.1513672,0-.0556641-.0372925-.0556641-.0842285,0-.1403809.3496094-.4022217.7207031-.8724976,1.1123047-1.4107056.3916016-.5380249.7119141-1.0222778.9609375-1.4528198h-4.0087891v5.7130127c0,.2715454-.0371094.4983521-.1113281.6807861-.0732422.1824951-.2207031.3344727-.4414062.4562378-.2216797.121521-.5449219.2057495-.96875.2526855h-.0273438c-.0458984,0-.078125-.0328979-.0966797-.0982666-.0458984-.2434692-.1611328-.430542-.3447266-.5615234-.2587891-.1591797-.7197266-.2855225-1.3828125-.3789673-.0742188-.0188599-.1113281-.06073-.1113281-.1263428,0-.0280762.0097656-.0513306.0283203-.0701904.0185547-.0186157.0458984-.0232544.0830078-.0140381,1.2441406.0842285,1.9443359.1263428,2.1015625.1263428.1376953,0,.234375-.0232544.2890625-.0701904.0566406-.0466919.0839844-.1263428.0839844-.2386475v-5.6708984h-3.3320312c-.5898438.0094604-1.2480469.0701904-1.9765625.1824951h-.0410156c-.0371094,0-.0703125-.0232544-.0976562-.0701904l-.2480469-.5053101c-.0097656-.0092163-.0136719-.0280762-.0136719-.0561523,0-.0467529.03125-.0701904.0957031-.0701904.5078125.046936,1.0693359.0795898,1.6875.0982666h5.1699219c-.2304688-.3930664-.6318359-.8328247-1.203125-1.319519-.5712891-.4864502-1.234375-.9123535-1.9902344-1.2773438-.0556641-.0280762-.078125-.0747681-.0693359-.1403809l.0136719-.0280762c.0087891-.0280762.0253906-.0491333.0478516-.0631714.0234375-.0139771.0537109-.0161743.0898438-.007019.8759766.168457,1.6875.4492188,2.4335938.8422241.4609375-.289917.9306641-.6057739,1.4101562-.9474487.4785156-.3414917.8886719-.6619263,1.2304688-.9615479h-5.0185547c-.5898438.0093994-1.2490234.0701904-1.9765625.1824951h-.0419922c-.0371094,0-.0683594-.0232544-.0957031-.0701904l-.25-.491333c-.0087891-.0091553-.0136719-.0280762-.0136719-.0560913,0-.0467529.0332031-.0701904.0976562-.0701904.5058594.046936,1.0683594.0795898,1.6855469.0982056h5.875l.3046875-.3508911Z"/>
          <path class="cls-1" d="m94.5014259,12.3904754c.0224609-.0232544.0537109-.0256958.0898438-.007019l.6357422.2245483c.3320312.0561523.4980469.1263428.4980469.2105713,0,.046936-.0507812.0982666-.1523438.1544189l-.234375.1123047c-.1757812.6270142-.3847656,1.2260132-.6289062,1.7966919-.2441406.5709229-.5136719,1.0576172-.8085938,1.4598389-.046875.0656128-.0976562.0750122-.1523438.0280762l-.0273438-.0140381c-.0566406-.0372925-.0703125-.0888062-.0419922-.1544189.0732422-.1776123.1748047-.4724121.3037109-.8842773.1289062-.4116821.2402344-.8889771.3320312-1.4317627.0917969-.5426636.1425781-1.0106812.1523438-1.4037476,0-.0372314.0117188-.067749.0341797-.0911865Zm3.3662109-1.8880005c-.1474609-.2618408-.3457031-.5895386-.59375-.982605-.0371094-.0653076-.0332031-.1168823.0136719-.1543579.0449219-.0280762.0957031-.0280762.1513672,0,.5810547.3276367,1.0068359.6785889,1.2783203,1.0527344.2724609.3743896.4082031.7158813.4082031,1.0247192,0,.168457-.0390625.3066406-.1171875.4140625-.078125.1077271-.1777344.161438-.296875.161438-.1015625,0-.203125-.0326538-.3046875-.0982666-.0273438-.0280762-.0507812-.0747681-.0683594-.1403809-.046875-.2526245-.1582031-.5800781-.3320312-.9825439-.40625.0936279-.7744141.1778564-1.1064453.2526245v2.8916626c.0185547,1.1698608.0556641,2.241272.1103516,3.2144165,0,.0561523-.0175781.1028442-.0546875.1403809-.0742188.0842285-.1777344.1589966-.3115234.2246094-.1337891.0653687-.2832031.0982666-.4492188.0982666-.0732422,0-.140625-.0305176-.2001953-.0912476-.0605469-.0609741-.0898438-.1241455-.0898438-.1895142.0371094-.5522461.0683594-1.0878906.0966797-1.6072388s.0458984-1.2001343.0556641-2.0423584v-2.4564819c-.5078125.1123047-1.0742188.2246094-1.7011719.3369141-.0546875.1217041-.1328125.2059326-.234375.2526245l-.0410156.0140381c-.046875,0-.0791016-.0326538-.0976562-.0982666l-.2207031-.8140869v-.0421143c0-.0561523.0322266-.0842285.0966797-.0842285.6171875-.0280762,1.0498047-.0513306,1.2998047-.0701904.3398438-.5145264.6992188-1.1275635,1.078125-1.8388672.2207031-.4022217.4257812-.8327637.6152344-1.2913818.1884766-.458374.3291016-.8703003.421875-1.2352295.0175781-.0842285.0683594-.1029053.1513672-.0561523.7548828.3182373,1.1337891.538208,1.1337891.659729,0,.0374756-.046875.0701904-.1386719.0982666l-.2480469.0842285c-.3144531.5333862-.703125,1.1229248-1.1679688,1.7686157-.4667969.6456909-.9384766,1.2401123-1.4179688,1.7827148l2.28125-.1965332Zm-2.8339844-3.1021729c.1845703-.383606.3476562-.8187256.4902344-1.3054199.1435547-.4864502.2470703-.9310303.3115234-1.3334961.0087891-.0842285.0556641-.1123047.1376953-.0842285.7929688.3182373,1.1894531.5333862,1.1894531.6456909,0,.0280762-.0410156.0609741-.125.0982666l-.234375.0842285c-.5996094.9733887-1.0917969,1.6844482-1.4785156,2.133606.2109375.1778564.3671875.3557739.46875.5333862.1015625.1779175.1523438.3463135.1523438.5053711,0,.1403198-.0341797.2526245-.1035156.336853-.0683594.0842285-.1582031.1263428-.2695312.1263428-.0644531,0-.1425781-.0232544-.234375-.0701904-.0195312-.0092163-.0507812-.0466919-.0976562-.1123047-.1015625-.2807007-.2714844-.5825195-.5117188-.9053955-.2392578-.3228149-.4970703-.6105957-.7734375-.8632202-.0546875-.0467529-.0605469-.0934448-.0136719-.1403809.0371094-.0372925.0917969-.0421143.1660156-.0140381.359375.1123047.6630859.2480469.9121094.4070435l.0136719-.0421143Zm2.4472656,5.0393066h.0136719c.0644531-.0186768.1152344-.0092163.1523438.0280151.5058594.3649902.875.7439575,1.1054688,1.1370239.2304688.3930054.3457031.7487793.3457031,1.0668335,0,.2059326-.0390625.369751-.1171875.491272-.0791016.1217041-.1826172.1824951-.3115234.1824951-.1015625,0-.2080078-.0421143-.3173828-.1263428-.0283203-.0280762-.0507812-.0701904-.0703125-.1263428-.0361328-.3741455-.1347656-.788269-.296875-1.2422485-.1611328-.4537964-.34375-.8773193-.5458984-1.2703857-.0273438-.0747681-.0136719-.12146.0419922-.1403198Zm7.0214844-4.9831543c.0195312-.0280762.0507812-.0723877.0976562-.1333618.0458984-.06073.0878906-.1052246.1240234-.1333008s.0732422-.0421143.1103516-.0421143c.0742188,0,.2373047.1052856.4912109.3157959.2529297.2105713.4121094.3814087.4765625.5123901.0283203.046936.0185547.0936279-.0273438.1403198-.1103516.0842285-.2763672.1403809-.4970703.168457-.1298828,5.0252075-.484375,7.902771-1.0644531,8.6326904-.359375.4211426-.8671875.645752-1.5214844.6738281-.0742188,0-.1103516-.0375366-.1103516-.1123047-.0185547-.2715454-.1103516-.4680786-.2763672-.5895386-.1757812-.1311646-.6679688-.2807617-1.4794922-.4492188-.0644531-.0092163-.0966797-.0466919-.0966797-.1123047v-.0421143c0-.0372925.0117188-.0653687.0351562-.0842285.0224609-.0186157.0527344-.0231934.0898438-.0140381,1.1152344.1311646,1.8144531.1965332,2.1005859.1965332.1474609,0,.2587891-.0140381.3320312-.0421143s.1572266-.0842285.2490234-.168457c.4414062-.4491577.7363281-3.1207886.8847656-8.0150757h-4.0371094c-.4140625.861084-.8613281,1.581604-1.3408203,2.1616821-.0458984.0656128-.0966797.0750122-.1513672.0280762l-.0419922-.0280762c-.0556641-.0372314-.0644531-.0888062-.0283203-.1543579.3789062-.7391357.7011719-1.5440674.96875-2.4143677.1376953-.4211426.2617188-.9099731.3730469-1.4668579.1103516-.5566406.1748047-1.0317383.1933594-1.4247437,0-.0372925.0117188-.0653687.0351562-.0842285.0224609-.0186768.0527344-.0186768.0898438,0,.4785156.1403809.8105469.2526855.9941406.336853.1845703.0842285.2773438.1544189.2773438.2105713,0,.0375366-.0419922.0750122-.125.1123047l-.234375.0982666c-.2402344.7860718-.5117188,1.5300293-.8164062,2.2318726h3.7050781l.2207031-.3088379Zm-4.078125,2.6530151c.046875-.0280762.0976562-.0280762.1523438,0,.6914062.3837891,1.1982422.8001099,1.5214844,1.2492676.3222656.4491577.4833984.8656616.4833984,1.2492676,0,.2059937-.0439453.3720093-.1318359.4983521-.0878906.1262817-.1992188.1894531-.3378906.1894531-.1113281,0-.2216797-.0372925-.3320312-.1122437-.0273438-.0280762-.0507812-.0748291-.0693359-.1403809-.0458984-.4303589-.1914062-.9005737-.4345703-1.4107056-.2451172-.5099487-.5283203-.9707642-.8515625-1.3826904-.0449219-.0653076-.0449219-.1122437,0-.1403198Z"/>
        </g>
        <g>
          <path class="cls-1" d="m48.5727149,25.0933563c0-1.4924927,0-1.760376-.0185547-2.0665283-.0185547-.3253174-.0947266-.4783936-.4052734-.5453491-.0761719-.019165-.2363281-.0286865-.3203125-.0286865-.0380859,0-.0761719-.019165-.0761719-.0574341,0-.057373.046875-.0765381.1503906-.0765381.4248047,0,1.0195312.0287476,1.0664062.0287476.1035156,0,.8203125-.0287476,1.1132812-.0287476.59375,0,1.2246094.0574341,1.7246094.4209595.2363281.1722412.6503906.6409912.6503906,1.3011475,0,.7080078-.2910156,1.4159546-1.140625,2.210083.7734375,1.0045166,1.4140625,1.8560181,1.9619141,2.4492188.5087891.5452881.9150391.6505127,1.1503906.6888428.1787109.0286865.3115234.0286865.3681641.0286865.046875,0,.0839844.0286865.0839844.057373,0,.0574341-.0566406.0765381-.2265625.0765381h-.6689453c-.5283203,0-.7636719-.0478516-1.0087891-.1817627-.40625-.2200317-.7363281-.6888428-1.2734375-1.4063721-.3964844-.5262451-.8388672-1.1672363-1.0273438-1.4159546-.0380859-.038269-.0664062-.0574341-.1230469-.0574341l-1.1601562-.019104c-.046875,0-.0654297.0286865-.0654297.0765381v.2296143c0,.918457,0,1.6742554.046875,2.0761108.0283203.2774048.0849609.487915.3681641.5261841.1318359.019104.3398438.038269.4238281.038269.0566406,0,.0761719.0286865.0761719.057373,0,.0478516-.0478516.0765381-.1513672.0765381-.5185547,0-1.1123047-.0286865-1.1601562-.0286865-.0087891,0-.6035156.0286865-.8857422.0286865-.1035156,0-.1513672-.019104-.1513672-.0765381,0-.0286865.0185547-.057373.0751953-.057373.0849609,0,.1982422-.019165.2832031-.038269.1884766-.038269.2363281-.2487793.2734375-.5261841.046875-.4018555.046875-1.1576538.046875-2.0761108v-1.6838379Zm.7548828.8323364c0,.0478516.0185547.0861206.0654297.1148071.1416016.0861206.5761719.1530762.9902344.1530762.2265625,0,.4902344-.0286865.7070312-.1817627.3300781-.2296143.5761719-.7462769.5761719-1.4733887,0-1.1958618-.6230469-1.9134521-1.6318359-1.9134521-.2822266,0-.5380859.0287476-.6318359.0574341-.046875.019104-.0751953.057373-.0751953.1148071v3.128479Z"/>
          <path class="cls-1" d="m56.8578712,25.0933563c0-1.4924927,0-1.760376-.0195312-2.0665283-.0185547-.3253174-.09375-.4783936-.4042969-.5453491-.0664062-.019165-.1894531-.019165-.2744141-.0286865-.0654297-.0095825-.1220703-.019165-.1220703-.0574341,0-.057373.046875-.0765381.1503906-.0765381.2167969,0,.4716797,0,1.0664062.0287476.0654297,0,1.9414062,0,2.1582031-.0095825.2080078-.0095825.3779297-.0287476.4345703-.0574341s.0751953-.038269.1035156-.038269.0380859.038269.0380859.0861206c0,.0669556-.0566406.1817627-.0761719.449646-.0087891.1434937-.0185547.3253174-.0371094.5740356-.0097656.0957031-.0380859.1626587-.0761719.1626587-.0566406,0-.0742188-.0478516-.0742188-.1243896,0-.1243286-.0195312-.2391968-.0478516-.3157349-.0654297-.2200317-.2646484-.3156738-.6787109-.3539429-.1601562-.019165-1.1884766-.0287476-1.2919922-.0287476-.0380859,0-.0566406.0287476-.0566406.0957031v2.640564c0,.0669556.0087891.0956421.0566406.0956421.1220703,0,1.2822266,0,1.4990234-.019104.2548828-.019104.3769531-.0478516.4716797-.1626587.0478516-.057373.0751953-.0956421.1132812-.0956421.0283203,0,.046875.019104.046875.0765381,0,.057373-.046875.2200317-.0751953.5357666-.0283203.2965698-.0283203.5166016-.0371094.6505737-.0097656.0956421-.0292969.1434937-.0664062.1434937-.0566406,0-.0664062-.0765381-.0664062-.1530762,0-.0861206-.0097656-.1817627-.0371094-.2678833-.0380859-.1434937-.1513672-.2774658-.4902344-.3157349-.2558594-.0286865-1.1894531-.0477905-1.3496094-.0477905-.046875,0-.0654297.0286865-.0654297.0669556v.8419189c0,.3252563-.0087891,1.4350586,0,1.6359863.0185547.3922729.0751953.6027222.3115234.6984253.1601562.0669556.4140625.0860596.7822266.0860596.2832031,0,.5947266-.0095215.8486328-.0860596.3017578-.0957031.40625-.2966309.4804688-.7080078.0195312-.1052246.0380859-.1434937.0859375-.1434937.0566406,0,.0566406.0765381.0566406.1434937,0,.0765381-.0761719.7271118-.1230469.9280396-.0664062.2487183-.1416016.2487183-.5097656.2487183-.6972656,0-1.0087891-.019104-1.3769531-.0286865-.3769531-.0095215-.8105469-.0286865-1.1777344-.0286865-.2265625,0-.453125.038269-.6982422.0286865-.1035156,0-.1513672-.019104-.1513672-.0765381,0-.0286865.0478516-.0478516.1044922-.057373.0947266-.0095825.1513672-.0095825.2167969-.0286865.1982422-.0478516.3203125-.1818237.3388672-.899353.0097656-.3731079.0195312-.8610229.0195312-1.7125244v-1.6838379Z"/>
          <path class="cls-1" d="m63.1820899,29.4272796c-.1328125-.0669556-.1425781-.1052246-.1425781-.3635254,0-.4783936.0380859-.861084.0478516-1.0141602.0087891-.1052246.0283203-.1530762.0751953-.1530762.0566406,0,.0664062.0287476.0664062.1052856,0,.0861206,0,.2200317.0273438.3539429.1425781.7080078.7636719.9758911,1.3964844.9758911.9042969,0,1.3476562-.6601562,1.3476562-1.2724609,0-.6600952-.2734375-1.0427856-1.0839844-1.7221069l-.4238281-.3540039c-1-.8323364-1.2265625-1.4254761-1.2265625-2.0760498,0-1.0236816.7539062-1.7221069,1.9521484-1.7221069.3681641,0,.6416016.038269.8769531.0956421.1787109.038269.2548828.0478516.3300781.0478516s.0947266.019165.0947266.0669556c0,.0478516-.0380859.3635864-.0380859,1.0141602,0,.1530762-.0185547.2200317-.0654297.2200317-.0566406,0-.0664062-.0478516-.0761719-.1243896-.0097656-.1148071-.0664062-.3731079-.1230469-.4783325-.0566406-.1052856-.3105469-.5070801-1.1777344-.5070801-.6503906,0-1.1601562.411377-1.1601562,1.1098022,0,.5453491.2451172.8897705,1.1503906,1.6072998l.2636719.2104492c1.1132812.8897705,1.3769531,1.4829712,1.3769531,2.2483521,0,.3922729-.1503906,1.1193237-.8007812,1.5881348-.40625.2870483-.9160156.4018555-1.4248047.4018555-.4423828,0-.8769531-.0669556-1.2626953-.2583618Z"/>
          <path class="cls-1" d="m70.1762306,25.0933563c0-1.4924927,0-1.760376-.0195312-2.0665283-.0195312-.3253174-.09375-.4783936-.4052734-.5453491-.0664062-.019165-.1884766-.019165-.2734375-.0286865-.0664062-.0095825-.1230469-.019165-.1230469-.0574341,0-.057373.0478516-.0765381.1513672-.0765381.2167969,0,.4707031,0,1.0654297.0287476.0654297,0,1.9423828,0,2.1591797-.0095825.2070312-.0095825.3769531-.0287476.4335938-.0574341s.0761719-.038269.1035156-.038269c.0292969,0,.0380859.038269.0380859.0861206,0,.0669556-.0566406.1817627-.0751953.449646-.0097656.1434937-.0195312.3253174-.0371094.5740356-.0097656.0957031-.0390625.1626587-.0761719.1626587-.0566406,0-.0751953-.0478516-.0751953-.1243896,0-.1243286-.0185547-.2391968-.0478516-.3157349-.0654297-.2200317-.2636719-.3156738-.6777344-.3539429-.1611328-.019165-1.1894531-.0287476-1.2929688-.0287476-.0371094,0-.0566406.0287476-.0566406.0957031v2.640564c0,.0669556.0097656.0956421.0566406.0956421.1230469,0,1.2832031,0,1.5-.019104.2539062-.019104.3769531-.0478516.4707031-.1626587.0478516-.057373.0761719-.0956421.1132812-.0956421.0292969,0,.046875.019104.046875.0765381,0,.057373-.046875.2200317-.0742188.5357666-.0292969.2965698-.0292969.5166016-.0380859.6505737-.0097656.0956421-.0283203.1434937-.0664062.1434937-.0556641,0-.0654297-.0765381-.0654297-.1530762,0-.0861206-.0097656-.1817627-.0380859-.2678833-.0380859-.1434937-.1513672-.2774658-.4902344-.3157349-.2548828-.0286865-1.1884766-.0477905-1.3486328-.0477905-.046875,0-.0664062.0286865-.0664062.0669556v.8419189c0,.3252563-.0087891,1.4350586,0,1.6359863.0195312.3922729.0761719.6027222.3115234.6984253.1601562.0669556.4150391.0860596.7822266.0860596.2832031,0,.5947266-.0095215.8496094-.0860596.3007812-.0957031.4052734-.2966309.4804688-.7080078.0195312-.1052246.0371094-.1434937.0849609-.1434937.0566406,0,.0566406.0765381.0566406.1434937,0,.0765381-.0751953.7271118-.1220703.9280396-.0664062.2487183-.1425781.2487183-.5097656.2487183-.6972656,0-1.0087891-.019104-1.3769531-.0286865-.3769531-.0095215-.8105469-.0286865-1.1787109-.0286865-.2255859,0-.4521484.038269-.6982422.0286865-.1035156,0-.1503906-.019104-.1503906-.0765381,0-.0286865.046875-.0478516.1035156-.057373.0947266-.0095825.1513672-.0095825.2167969-.0286865.1982422-.0478516.3203125-.1818237.3398438-.899353.0097656-.3731079.0195312-.8610229.0195312-1.7125244v-1.6838379Z"/>
          <path class="cls-1" d="m76.8949806,25.0933563c0-1.4924927,0-1.760376-.0185547-2.0665283-.0185547-.3253174-.0947266-.4783936-.4052734-.5453491-.0761719-.019165-.2363281-.0286865-.3203125-.0286865-.0380859,0-.0761719-.019165-.0761719-.0574341,0-.057373.046875-.0765381.1503906-.0765381.4248047,0,1.0195312.0287476,1.0664062.0287476.1035156,0,.8203125-.0287476,1.1132812-.0287476.59375,0,1.2246094.0574341,1.7246094.4209595.2363281.1722412.6503906.6409912.6503906,1.3011475,0,.7080078-.2910156,1.4159546-1.140625,2.210083.7734375,1.0045166,1.4140625,1.8560181,1.9619141,2.4492188.5087891.5452881.9150391.6505127,1.1503906.6888428.1787109.0286865.3115234.0286865.3681641.0286865.046875,0,.0839844.0286865.0839844.057373,0,.0574341-.0566406.0765381-.2265625.0765381h-.6689453c-.5283203,0-.7636719-.0478516-1.0087891-.1817627-.40625-.2200317-.7363281-.6888428-1.2734375-1.4063721-.3964844-.5262451-.8388672-1.1672363-1.0273438-1.4159546-.0380859-.038269-.0664062-.0574341-.1230469-.0574341l-1.1601562-.019104c-.046875,0-.0654297.0286865-.0654297.0765381v.2296143c0,.918457,0,1.6742554.046875,2.0761108.0283203.2774048.0849609.487915.3681641.5261841.1318359.019104.3398438.038269.4238281.038269.0566406,0,.0761719.0286865.0761719.057373,0,.0478516-.0478516.0765381-.1513672.0765381-.5185547,0-1.1123047-.0286865-1.1601562-.0286865-.0087891,0-.6035156.0286865-.8857422.0286865-.1035156,0-.1513672-.019104-.1513672-.0765381,0-.0286865.0185547-.057373.0751953-.057373.0849609,0,.1982422-.019165.2832031-.038269.1884766-.038269.2363281-.2487793.2734375-.5261841.046875-.4018555.046875-1.1576538.046875-2.0761108v-1.6838379Zm.7548828.8323364c0,.0478516.0185547.0861206.0654297.1148071.1416016.0861206.5761719.1530762.9902344.1530762.2265625,0,.4902344-.0286865.7070312-.1817627.3300781-.2296143.5761719-.7462769.5761719-1.4733887,0-1.1958618-.6230469-1.9134521-1.6318359-1.9134521-.2822266,0-.5380859.0287476-.6318359.0574341-.046875.019104-.0751953.057373-.0751953.1148071v3.128479Z"/>
          <path class="cls-1" d="m83.9633399,23.2276947c-.2070312-.5357666-.3486328-.6409912-.6787109-.7366333-.1416016-.038269-.3017578-.038269-.3583984-.038269s-.0751953-.0286865-.0751953-.0670166c0-.057373.0947266-.0669556.2451172-.0669556.453125,0,.9619141.0287476,1.0751953.0287476.0947266,0,.4990234-.0287476.8583984-.0287476.1699219,0,.2539062.019165.2539062.0669556,0,.0478516-.0273438.0670166-.09375.0670166-.1035156,0-.2734375.0095215-.3583984.0478516-.1044922.0477905-.1230469.1243286-.1230469.1912842,0,.0861206.0849609.3444824.1884766.6123047l1.9238281,5.0802612c.546875-1.2820435,1.8105469-4.6210327,2.0175781-5.3098755.0478516-.1434937.0859375-.2774048.0859375-.3635254,0-.0765381-.0292969-.1722412-.1230469-.2200317-.1132812-.038269-.2539062-.038269-.3583984-.038269-.0566406,0-.1035156-.0095825-.1035156-.0574341,0-.057373.0566406-.0765381.2080078-.0765381.3769531,0,.8105469.0287476.9238281.0287476.0566406,0,.4619141-.0287476.7353516-.0287476.1035156,0,.1601562.019165.1601562.0669556,0,.0478516-.0380859.0670166-.1132812.0670166-.0654297,0-.2734375,0-.4521484.1148071-.1230469.0861206-.2646484.2487183-.5195312.899292-.1035156.2678833-.5742188,1.4159546-1.0556641,2.5927124-.5751953,1.3968506-.9990234,2.4301147-1.2158203,2.8989258-.2646484.5740356-.3027344.7271118-.3964844.7271118-.1132812,0-.1601562-.1339722-.3398438-.5932007l-2.3105469-5.8647461Z"/>
          <path class="cls-1" d="m92.9359962,25.0933563c0-1.4924927,0-1.760376-.0185547-2.0665283-.0185547-.3253174-.0947266-.4783936-.4052734-.5453491-.0664062-.019165-.1894531-.019165-.2734375-.0286865-.0664062-.0095825-.1230469-.019165-.1230469-.0574341,0-.057373.046875-.0765381.1503906-.0765381.2177734,0,.4726562,0,1.0664062.0287476.0664062,0,1.9423828,0,2.1591797-.0095825.2080078-.0095825.3779297-.0287476.4345703-.0574341s.0742188-.038269.1035156-.038269c.0273438,0,.0371094.038269.0371094.0861206,0,.0669556-.0566406.1817627-.0751953.449646-.0087891.1434937-.0185547.3253174-.0380859.5740356-.0097656.0957031-.0371094.1626587-.0751953.1626587-.0566406,0-.0751953-.0478516-.0751953-.1243896,0-.1243286-.0195312-.2391968-.046875-.3157349-.0664062-.2200317-.2646484-.3156738-.6796875-.3539429-.1601562-.019165-1.1875-.0287476-1.2910156-.0287476-.0380859,0-.0566406.0287476-.0566406.0957031v2.640564c0,.0669556.0087891.0956421.0566406.0956421.1220703,0,1.28125,0,1.4980469-.019104.2558594-.019104.3779297-.0478516.4726562-.1626587.046875-.057373.0751953-.0956421.1132812-.0956421.0273438,0,.046875.019104.046875.0765381,0,.057373-.046875.2200317-.0761719.5357666-.0273438.2965698-.0273438.5166016-.0371094.6505737-.0097656.0956421-.0283203.1434937-.0664062.1434937-.0566406,0-.0664062-.0765381-.0664062-.1530762,0-.0861206-.0087891-.1817627-.0371094-.2678833-.0371094-.1434937-.1503906-.2774658-.4902344-.3157349-.2548828-.0286865-1.1884766-.0477905-1.3486328-.0477905-.046875,0-.0654297.0286865-.0654297.0669556v.8419189c0,.3252563-.0097656,1.4350586,0,1.6359863.0185547.3922729.0742188.6027222.3105469.6984253.1601562.0669556.4150391.0860596.7832031.0860596.2822266,0,.59375-.0095215.8476562-.0860596.3027344-.0957031.40625-.2966309.4814453-.7080078.0185547-.1052246.0380859-.1434937.0849609-.1434937.0566406,0,.0566406.0765381.0566406.1434937,0,.0765381-.0761719.7271118-.1230469.9280396-.0654297.2487183-.140625.2487183-.5087891.2487183-.6982422,0-1.0087891-.019104-1.3769531-.0286865-.3769531-.0095215-.8115234-.0286865-1.1787109-.0286865-.2265625,0-.453125.038269-.6972656.0286865-.1035156,0-.1513672-.019104-.1513672-.0765381,0-.0286865.0478516-.0478516.1044922-.057373.09375-.0095825.1503906-.0095825.2167969-.0286865.1972656-.0478516.3203125-.1818237.3388672-.899353.0087891-.3731079.0185547-.8610229.0185547-1.7125244v-1.6838379Z"/>
        </g>
      </g>
      <g>
        <path class="cls-1" d="m22.6522786,34.7536739H1.9614523c-1.0815522,0-1.9614523-.8799992-1.9614523-1.9616504V1.9616455C0,.8799942.8799001.0000941,1.9614523.0000941h13.7856306c.3921122,0,.7099419.3178298.7099419.7099419s-.3178298.7099419-.7099419.7099419H1.9614523c-.2986154,0-.5415684.2429531-.5415684.5416675v30.830378c0,.2936632.2480043.5417665.5415684.5417665h20.6908263c.288513,0,.5416675-.2531545.5416675-.5417665V8.866544c0-.3921122.3178298-.7099419.7099419-.7099419s.7099419.3178298.7099419.7099419v23.9254795c0,1.0633282-.8983222,1.9616504-1.9615514,1.9616504Z"/>
        <path class="cls-1" d="m23.903888,9.576486h-6.9051957c-1.0816512,0-1.9615514-.8799001-1.9615514-1.9615514V.710036c0-.2871264.1729295-.5460254.4382663-.6558643.2654359-.1101361.5706872-.0491254.7736268.1538142l8.1568051,8.156508c.2031377.2030386.2638512.508389.1539132.7737258-.109839.2653368-.368738.4382663-.6558643.4382663Zm-7.4468632-7.1525067v5.1909553c0,.2987144.2429531.5416675.5416675.5416675h5.1911534l-5.7328209-5.7326228Z"/>
        <path class="cls-1" d="m30.5731627,32.2579823c-1.417903,0-2.9440603-1.3072717-2.9440603-4.1773468V4.8929292c0-.3921122.3178298-.7099419.7099419-.7099419h4.4684348c.3921122,0,.7099419.3178298.7099419.7099419v23.1877064c0,2.870075-1.5261573,4.1773468-2.9442584,4.1773468Zm-1.5241764-26.6551112v22.4777644c0,1.8103124.7667928,2.7574629,1.5241764,2.7574629.7575817,0,1.5243745-.9471505,1.5243745-2.7574629V5.6028712h-3.0485509Z"/>
        <path class="cls-1" d="m35.7147945,17.9164221h-.0012876c-.3921122-.0006933-.7093477-.3192164-.7086544-.7112295l.0149555-7.9504981-6.7081987-.0001981c-.3921122,0-.7099419-.3178298-.7099419-.7099419s.3179288-.7099419.7099419-.7099419h0l7.4194282.0001981c.1885783,0,.3693322.0749757.5024464.208387.1332132.1334112.2078918.3143632.2074956.5028425l-.0162431,8.6617276c-.0006933.391716-.318424.7086544-.7099419.7086544Z"/>
        <path class="cls-1" d="m30.4979889,34.7535749c-.3921122,0-.7099419-.3178298-.7099419-.7099419v-2.4974744c0-.3921122.3178298-.7099419.7099419-.7099419s.7099419.3178298.7099419.7099419v2.4974744c0,.3921122-.3178298.7099419-.7099419.7099419Z"/>
        <path class="cls-1" d="m12.306816,8.1251063h-6.5939028c-.3921122,0-.7099419-.3178298-.7099419-.7099419s.3178298-.7099419.7099419-.7099419h6.5939028c.3921122,0,.7099419.3178298.7099419.7099419s-.3178298.7099419-.7099419.7099419Z"/>
        <path class="cls-1" d="m18.9010159,14.3654248H5.7129132c-.3921122,0-.7099419-.3178298-.7099419-.7099419s.3178298-.7099419.7099419-.7099419h13.1881027c.3921122,0,.7099419.3178298.7099419.7099419s-.3178298.7099419-.7099419.7099419Z"/>
        <path class="cls-1" d="m18.9010159,18.0082351H5.7129132c-.3921122,0-.7099419-.3178298-.7099419-.7099419s.3178298-.7099419.7099419-.7099419h13.1881027c.3921122,0,.7099419.3178298.7099419.7099419s-.3178298.7099419-.7099419.7099419Z"/>
        <path class="cls-1" d="m18.9010159,21.6510455H5.7129132c-.3921122,0-.7099419-.3178298-.7099419-.7099419s.3178298-.7099419.7099419-.7099419h13.1881027c.3921122,0,.7099419.3178298.7099419.7099419s-.3178298.7099419-.7099419.7099419Z"/>
        <path class="cls-1" d="m12.306816,25.2938559h-6.5939028c-.3921122,0-.7099419-.3178298-.7099419-.7099419s.3178298-.7099419.7099419-.7099419h6.5939028c.3921122,0,.7099419.3178298.7099419.7099419s-.3178298.7099419-.7099419.7099419Z"/>
      </g>
    </g>
  </g>
</svg>