<?xml version="1.0" encoding="UTF-8"?>
<svg id="_レイヤー_2" data-name="レイヤー 2" xmlns="http://www.w3.org/2000/svg" viewBox="0 0 114.5730804 42.5722184">
  <defs>
    <style>
      .cls-1 {
        fill: #fff;
      }
    </style>
  </defs>
  <g id="_レイヤー_1-2" data-name="レイヤー 1">
    <g>
      <g>
        <g>
          <path class="cls-1" d="m51.4685883,12.9812754c.0273438-.0372925.0664062-.0888062.1171875-.1544189.0507812-.0653687.0917969-.1123047.1240234-.1403809s.0673828-.0421143.1035156-.0421143c.0732422,0,.2255859.1287842.4560547.3860474.2304688.2575073.3779297.4609985.4433594.6105957.0273438.0561523.0136719.1030884-.0419922.1403809-.0742188.0374756-.2167969.0655518-.4287109.0842285-.1474609.2059326-.3300781.4351196-.5458984.6878052-.2167969.2526855-.4169922.4631958-.6015625.6316528-.0458984.0655518-.0966797.0750122-.1513672.0280762l-.0283203-.0140381c-.0556641-.0372925-.0693359-.0888062-.0419922-.1544189.1572266-.4022217.2949219-.8468018.4160156-1.3334961h-4.2724609v1.0808716c.0283203.8890991.0556641,1.5580444.0830078,2.0072632,0,.046936-.0136719.0936279-.0410156.1403809-.0742188.0750122-.1777344.1403809-.3115234.1964722-.1337891.0561523-.2919922.0842285-.4765625.0842285-.0654297,0-.1201172-.0280762-.1660156-.0842285-.0458984-.0560913-.0693359-.12146-.0693359-.1964722.0371094-.5053711.0693359-1.1883545.0976562-2.0494385v-1.1790771h-3.9267578c.0185547.3930664-.0322266.7347412-.1513672,1.0247192-.1210938.2901611-.2773438.5053101-.4707031.6456909-.15625.1030884-.3183594.1544189-.484375.1544189-.2207031,0-.3681641-.0842285-.4414062-.2526855-.0195312-.0372925-.0273438-.0982666-.0273438-.1824951,0-.2056885.1191406-.3881836.359375-.5474243.2382812-.1403809.4355469-.3671875.5869141-.6807861.1523438-.3134155.2236328-.6573486.2138672-1.0317383v-.0280762c0-.0561523.0332031-.0842285.0976562-.0842285h.0273438c.0742188,0,.1152344.0280762.125.0842285.0634766.1873169.1005859.3509521.109375.491333h3.9824219v-1.1791382h-1.9492188c-.5898438.0094604-1.25.0701904-1.9775391.1824951h-.0273438c-.0458984,0-.0830078-.0232544-.1103516-.0701904l-.2490234-.491272-.0146484-.0561523c0-.0467529.0332031-.0701904.0976562-.0701904.4980469.046936,1.0546875.0795898,1.671875.0982666h6.3320312l.2763672-.3790283c.0361328-.0466919.0810547-.1052856.1318359-.1754761.0498047-.0701294.09375-.1239014.1308594-.161377.0371094-.0372925.0732422-.0561523.1103516-.0561523.0830078,0,.2695312.1146851.5595703.3438721.2910156.2294312.4677734.4094849.5332031.5404663.0078125.046936.0039062.0936279-.0146484.1403198-.0556641.1030884-.1572266.1544189-.3037109.1544189h-4.3134766v1.1791382h4.2158203l.2363281-.322876Zm-8.1289062,3.621521c-.2402344.0094604-.5019531.0609741-.7880859.1544189-.0644531.0280762-.1103516.0093994-.1376953-.0561523l-.2353516-.4631958-.0146484-.0561523c0-.0467529.0332031-.0701904.0976562-.0701904.4140625.046936.8847656.0795898,1.4101562.0982666h.7460938l.1933594-.2667236c.0185547-.0280762.0488281-.067749.0898438-.1193237.0410156-.0513306.078125-.0912476.1113281-.1193237.03125-.0280762.0664062-.0421143.1035156-.0421143.0732422,0,.2138672.0796509.421875.2386475.2070312.1592407.3378906.2947998.3935547.4071045.0087891.046936.0048828.0889893-.0146484.1262817-.0546875.1123047-.1601562.168457-.3173828.168457h-2.0595703Zm6.7597656.7860718c.0273438-.0372925.0625-.0842285.1035156-.1403809s.078125-.0982666.1113281-.1263428c.03125-.0280762.0664062-.0420532.1035156-.0420532.0820312,0,.2441406.1052246.4833984.3157959s.3916016.3814087.4560547.5123291c.0273438.046936.0185547.093689-.0273438.1403809-.1386719.1030884-.2949219.168457-.4707031.1965332v1.1650391c.0283203.9453125.0556641,1.6658325.0839844,2.1616821,0,.046936-.0146484.093689-.0419922.1403809-.0830078.0842285-.2001953.1592407-.3525391.2246094-.1523438.0655518-.2929688.0982666-.421875.0982666h-.0136719c-.0742188,0-.1103516-.0372925-.1103516-.1123047v-.5053101h-3v.7720337c0,.1591797.0136719.2736816.0419922.3438721.0273438.0701904.0839844.114502.171875.1333618.0878906.0186157.2324219.0280762.4355469.0280762h3.4003906c.1660156,0,.2890625-.0094604.3671875-.0280762.078125-.0188599.1357422-.06073.171875-.1263428.046875-.0653687.0976562-.2081299.1523438-.4281006.0556641-.2197876.1152344-.4702759.1796875-.7509766.0097656-.0653687.0507812-.0982666.125-.0982666.0546875,0,.0830078.0374756.0830078.1123047l.0273438,1.151001c.2021484.0842285.3271484.1425781.3740234.1754761.0449219.0326538.0683594.0912476.0683594.1754761,0,.1964722-.1191406.3414917-.359375.4351196-.2402344.0934448-.6503906.1403809-1.2304688.1403809h-3.359375c-.4335938,0-.7529297-.0328979-.9609375-.0982666-.2070312-.0655518-.3496094-.1873169-.4277344-.3649292-.078125-.1779175-.1171875-.4584351-.1171875-.8422241v-.7299194h-2.8613281v.2385864l.0273438.3369141v.0561523c0,.0750122-.0859375.1567993-.2558594.2456055-.1708984.0890503-.3388672.1333618-.5048828.1333618-.0556641,0-.1015625-.0280762-.1376953-.0842285-.0371094-.0561523-.0556641-.12146-.0556641-.1964722.0361328-.383606.0644531-.8654785.0830078-1.4458008v-.8703003c0-.982605-.046875-1.8153687-.1386719-2.4985962v-.0280762c0-.0372925.0097656-.06073.0273438-.0701904.0195312-.0092163.046875-.0045776.0839844.0140381l.953125.4492188h6.5117188l.2207031-.3088379Zm-5.515625-2.8635254c.0273438-.0280762.0683594-.0794067.125-.1544189.0546875-.0747681.109375-.1123047.1650391-.1123047.0830078,0,.2236328.0796509.421875.2386475.1982422.1592407.3193359.2947998.3662109.4070435.0097656.046936.0039062.093689-.0136719.1403809-.0556641.093689-.1621094.1403809-.3183594.1403809h-.9257812c-.5527344.0188599-1.0830078.0795898-1.5898438.1824951h-.0410156c-.0371094,0-.0703125-.0232544-.0976562-.0701904l-.234375-.4631958c-.0097656-.0186768-.0136719-.0421143-.0136719-.0701904,0-.0467529.03125-.0653687.0957031-.0561523.40625.046936.8115234.0750122,1.2167969.0842285h.6503906l.1933594-.2667236Zm1.5625,4.8146362v-1.2352295h-2.8613281v1.2352295h2.8613281Zm-2.8613281.3930664v1.2773438h2.8613281v-1.2773438h-2.8613281Zm6.7177734-.3930664v-1.2352295h-3v1.2352295h3Zm-3,.3930664v1.2773438h3v-1.2773438h-3Zm2.9580078-3.8040161c.0273438-.0372925.0742188-.0958252.1386719-.1754761.0644531-.0794067.125-.1193237.1796875-.1193237.0830078,0,.2304688.0842285.4423828.2526855s.3457031.3088379.4013672.4211426c.0078125.046936.0078125.0936279,0,.1403198-.0556641.1030884-.1660156.1544189-.3320312.1544189h-1.0507812c-.5527344.0094604-1.1757812.0701904-1.8662109.1824951h-.0419922c-.0371094,0-.0683594-.0232544-.0957031-.0701904l-.25-.4772339c-.0087891-.0092163-.0136719-.0280762-.0136719-.0561523,0-.0467529.0371094-.0701904.1113281-.0701904.4140625.046936.8847656.0795898,1.4101562.0982666h.7597656l.2070312-.2807617Zm-1.3964844-.7439575c-.2109375.0094604-.4375.0609741-.6767578.1544189-.0087891.0093994-.0283203.0140381-.0556641.0140381-.0458984,0-.078125-.0232544-.0957031-.0701904l-.2363281-.4491577-.0136719-.0561523c0-.0653687.0371094-.0888672.1113281-.0701904.4052734.046936.8105469.0750122,1.2167969.0842285h.6494141l.2070312-.2807617c.0185547-.0280762.0478516-.067749.0898438-.1193237.0419922-.0513306.078125-.0912476.1103516-.1193237.0332031-.0280762.0664062-.0421143.1035156-.0421143.0917969,0,.25.0982666.4707031.2947998s.3320312.3463135.3320312.4491577c-.0097656.1403809-.1201172.2105713-.3320312.2105713h-1.8808594Z"/>
          <path class="cls-1" d="m57.8689789,14.0059947c-.4804688.0093994-.9550781.0655518-1.4238281.168396-.0742188.0188599-.1210938,0-.1386719-.0560913l-.2353516-.491333c-.0087891-.0092163-.0136719-.0280762-.0136719-.0561523,0-.0466919.0322266-.0701904.0966797-.0701904.5068359.046936,1.0683594.0796509,1.6865234.0982666h2.0869141l.25-.3789673c.0273438-.0372925.0664062-.0934448.1171875-.168457.0507812-.0747681.09375-.1309204.1308594-.168457.0371094-.0372925.0742188-.0561523.1113281-.0561523.0732422,0,.2441406.1171265.5107422.3509521.2666016.2340088.4326172.4165039.4970703.5474243.0097656.046936.0058594.0890503-.0136719.1263428-.0546875.1030884-.1660156.1544189-.3310547.1544189h-3.3310547Zm-.2910156,8.9134521c.0185547.2245483.0273438.3414917.0273438.3508911v.0701904c0,.0280762-.0039062.0513306-.0136719.0701904-.0644531.0747681-.1611328.1425781-.2900391.2035522-.1298828.06073-.2675781.0912476-.4150391.0912476-.0644531,0-.1171875-.0280762-.1582031-.0842285-.0419922-.0561523-.0625-.1217651-.0625-.1965332.0371094-.3838501.0644531-.8654785.0830078-1.4458008v-.8703003c0-.9918213-.0458984-1.8294067-.1386719-2.5126343v-.0280762c0-.0653076.0371094-.0841675.1103516-.0560913l.9121094.4070435h1.9355469l.1933594-.2667236c.0283203-.0280762.0722656-.0793457.1318359-.1543579.0595703-.0748291.1181641-.1123047.1728516-.1123047.0830078,0,.2509766.0960693.5048828.2877197.2529297.1919556.4121094.3487549.4765625.4702759.0283203.046936.0185547.0936279-.0273438.1403809-.1298828.0936279-.2900391.1638184-.4833984.2105103v1.2212524c.0273438,1.0014038.0546875,1.7593994.0820312,2.2739868,0,.0560913-.0175781.1028442-.0546875.1403198-.0830078.0748291-.2011719.1425781-.3535156.2035522-.1513672.06073-.2832031.0912476-.3925781.0912476-.0839844,0-.1435547-.0701904-.1796875-.2105713,0-.0188599.0078125-.0655518.0273438-.1403809,0-.0093994.0087891-.0609741.0273438-.1543579v-.2526855h-2.1152344v.2526855Zm.4423828-7.1307983c-.3310547.0094604-.6591797.0656128-.9814453.168457h-.0410156c-.0371094,0-.0693359-.0232544-.0976562-.0701904l-.2480469-.4772339c-.0097656-.0092163-.0136719-.0280762-.0136719-.0561523,0-.0467529.0361328-.0701904.1103516-.0701904.4970703.046936,1.0556641.0795898,1.6728516.0982666h.8847656l.2207031-.3509521c.0273438-.0372925.0644531-.0888062.1113281-.1544189.0449219-.0653076.0839844-.1144409.1171875-.1473389.03125-.0327148.0664062-.0491333.1035156-.0491333.0732422,0,.2304688.1052856.4697266.3157959.2392578.2105713.3876953.3768311.4423828.4983521.0097656.046936.0039062.0890503-.0136719.1262817-.0546875.1123047-.15625.168457-.3046875.168457h-2.4326172Zm1.4658203,1.0247192c.0175781-.0280762.0507812-.0794067.0957031-.1544189.046875-.0747681.0878906-.12854.125-.161438.0371094-.0326538.0742188-.0491333.1113281-.0491333.0722656,0,.2324219.1101074.4765625.329895.2441406.2199707.3984375.3908081.4628906.5123291.0087891.046936.0039062.093689-.0136719.1403809-.0556641.0936279-.1572266.1403809-.3046875.1403809h-1.4238281c-.5898438.0093994-1.2480469.0701904-1.9765625.1824951h-.0410156c-.0371094,0-.0693359-.0232544-.0976562-.0701904l-.2480469-.491333c-.0097656-.0092163-.0136719-.0280762-.0136719-.0561523,0-.0466919.03125-.0701294.0957031-.0701294.4980469.046936,1.046875.0795898,1.6455078.0982056h.8710938l.2353516-.3508911Zm.0546875-5.3621216c.0371094-.0466919.0742188-.0982666.1113281-.1544189.0361328-.0561523.0761719-.1074219.1171875-.1543579.0410156-.0467529.0800781-.0701904.1171875-.0701904.0830078,0,.2539062.1122437.5117188.336853s.4189453.4024658.484375.5333862l.0136719.0561523c0,.0750122-.0351562.1333618-.1035156.1754761-.0703125.0421143-.1552734.0631714-.2558594.0631714h-1.4658203c-.5898438.0094604-1.2490234.0701904-1.9775391.1824951h-.0410156c-.0371094,0-.0683594-.0232544-.0966797-.0701904l-.2490234-.5053101c-.0087891-.0092163-.0136719-.0280762-.0136719-.0561523,0-.0467529.0322266-.0701904.0976562-.0701904.4970703.046936,1.0449219.0795898,1.6445312.0982666h.8574219l.2480469-.3649902Zm-1.9628906,7.8887329v2.9057007h2.1152344v-2.9057007h-2.1152344Zm8.9580078-1.3475342c.0273438-.0372925.0732422-.1004639.1376953-.1894531.0644531-.0888672.125-.1333618.1796875-.1333618.0839844,0,.2539062.1123047.5117188.336853.2578125.2246094.4150391.4024658.4707031.5334473.0273438.0374756.0175781.0795898-.0283203.1262817-.1015625.1030884-.2666016.1779175-.4970703.2246094v1.4458008c.0273438,1.2166138.0595703,2.1290283.0957031,2.7371826,0,.0561523-.0175781.1029053-.0546875.1403809-.0830078.0842285-.203125.161438-.359375.2316284s-.2949219.1052856-.4140625.1052856c-.0927734,0-.1572266-.0701904-.1943359-.2105713l.0146484-.1403809.0410156-.2105103v-.2807617h-3.6083984v.7018433c0,.0561523-.0732422.1193237-.2216797.1895142-.1464844.0701904-.3027344.1052856-.46875.1052856-.0644531,0-.1210938-.0280762-.1660156-.0842285-.046875-.0561523-.0693359-.1217651-.0693359-.1965332.0458984-.430542.078125-1.0058594.0966797-1.7265625v-1.0106201c0-1.104126-.0507812-2.0119019-.1523438-2.7232056v-.0280762c0-.0372925.0117188-.06073.0351562-.0701904.0224609-.0091553.0527344-.0045776.0898438.0140381l.9257812.4351807h1.2714844v-2.6670532h-.953125c-.5810547.0094604-1.1289062.0701904-1.6455078.1824951h-.0419922c-.0361328,0-.0683594-.0232544-.0957031-.0701904l-.25-.491272c-.0087891-.0092163-.0136719-.0280762-.0136719-.0561523,0-.0466919.0332031-.0701904.0976562-.0701904.5058594.046936,1.0683594.0796509,1.6855469.0982666h1.2167969v-2.6108398c-.7646484.1591797-1.59375.276123-2.4882812.3508911-.0644531,0-.1054688-.0326538-.1240234-.0982666l-.0146484-.0280762v-.0280762c0-.0653687.0283203-.1028442.0839844-.1123047.8652344-.1776123,1.7275391-.4162598,2.5849609-.7158813.9208984-.3179932,1.6533203-.7064209,2.1982422-1.1650391.0546875-.0466919.109375-.0421143.1660156.0140381.3222656.3276978.5429688.5662842.6630859.7158813.1201172.1497803.1796875.2526855.1796875.3088379,0,.0655518-.0654297.0889893-.1943359.0701294l-.3173828-.0421143c-.4970703.1873169-1.1289062.369812-1.8935547.5474854v2.793335h1.5625l.2753906-.4210815c.0371094-.0467529.0810547-.1099243.1318359-.1895142.0498047-.0794067.0947266-.1379395.1318359-.1754761.0361328-.0372925.0732422-.0561523.109375-.0561523.0742188,0,.2539062.1263428.5390625.3790283.2861328.2526245.4609375.4445801.5253906.5755005.0097656.046936.0058594.0936279-.0136719.1403809-.0546875.1030884-.15625.1543579-.3037109.1543579h-2.9580078v2.6670532h1.2988281l.2216797-.322876Zm-.0966797,4.3093262v-3.5794067h-3.6083984v3.5794067h3.6083984Z"/>
          <path class="cls-1" d="m76.0877289,11.4652842c.0185547-.0280762.0488281-.0723877.0898438-.1333618.0419922-.06073.078125-.1052856.1113281-.1333618.03125-.0280762.0664062-.0421143.1035156-.0421143.0732422,0,.2304688.1030884.4697266.3088379.2392578.2059326.3916016.369812.4560547.491272.0273438.046936.0185547.093689-.0273438.1403809-.1386719.1217651-.2851562.1918945-.4423828.2105713v1.2913818c.0283203,1.0856934.0595703,1.8950195.0966797,2.4284058,0,.0561523-.0185547.1030884-.0546875.1403809-.0927734.0750122-.2128906.1427612-.359375.2034912-.1484375.0609741-.2773438.0912476-.3876953.0912476-.0927734,0-.1474609-.0701904-.1660156-.2105103l.0146484-.1403809c0,.0093994.0078125-.0327148.0273438-.1263428v-.2526855h-2.8066406v4.2532349c.0185547,1.1604614.0546875,2.2366943.1113281,3.2284546,0,.0372925-.0146484.0842285-.0419922.1403809-.0654297.1028442-.1660156.1895142-.3037109.2597046-.1386719.0701904-.2861328.1052856-.4433594.1052856-.0820312,0-.15625-.0280762-.2207031-.0842285s-.0966797-.1217651-.0966797-.1965332c.0361328-.5522461.0693359-1.0878906.0966797-1.6072388s.0458984-1.2001343.0546875-2.0423584v-5.6849365c0-1.1135254-.0507812-2.0165405-.1513672-2.7091675v-.0280762c0-.0372925.0107422-.0631714.0341797-.0772095s.0527344-.0115967.0898438.007019l.9257812.4632568h2.6269531l.1933594-.2947998Zm-.0683594,2.0634155v-1.3615723h-2.8066406v1.3615723h2.8066406Zm-2.8066406.3930664v1.4036865h2.8066406v-1.4036865h-2.8066406Zm2.8339844,7.4255371l.0273438.3649292v.0631714c0,.0328979-.0097656.0585938-.0273438.0772095-.0546875.0750122-.1523438.1403809-.2910156.1965332-.1376953.0561523-.28125.0842285-.4277344.0842285-.0556641,0-.1035156-.0280762-.1455078-.0842285s-.0615234-.121521-.0615234-.1965332c.0361328-.3555298.0644531-.8046875.0820312-1.3475342v-.828186c0-.8983765-.0410156-1.6844482-.1240234-2.3582153v-.0280762c0-.0372925.0117188-.06073.0341797-.0701904.0234375-.0092163.0527344-.0045776.0898438.0140381l.8847656.4211426h3.0273438l.1933594-.2526855c.0283203-.0280762.0703125-.0794067.125-.1544189.0546875-.0747681.1113281-.1123047.1660156-.1123047.0830078,0,.2441406.093689.484375.2807617.2382812.1873169.3867188.3417358.4414062.4631958.0273438.0375366.0185547.0796509-.0273438.1263428-.1015625.1030884-.2441406.168457-.4287109.1965332v1.151001c.0283203.9264526.0556641,1.6331177.0830078,2.1196289,0,.0560913-.0185547.1030273-.0546875.1403198-.0742188.0750122-.1875.1473999-.3398438.2175903-.1513672.0701904-.2832031.1052856-.3935547.1052856-.0917969,0-.1572266-.0701904-.1933594-.2105713l.0136719-.1403809.0419922-.2105103v-.2807617h-3.1796875v.2526855Zm0-3.284668v2.6389771h3.1796875v-2.6389771h-3.1796875Zm3.234375-1.9651489c0,.0561523-.078125.1193237-.234375.1895142-.1572266.0701294-.3183594.1052246-.484375.1052246-.0546875,0-.1015625-.0280762-.1386719-.0841675-.0361328-.0561523-.0546875-.121521-.0546875-.1965332.0371094-.3649902.0644531-.8328247.0830078-1.4036865v-.8422241c0-.9637451-.0458984-1.7778931-.1376953-2.4424438v-.0280762c0-.0372925.0078125-.06073.0273438-.0701904.0175781-.0092163.0458984-.0045776.0820312.0140381l.9267578.4211426h2.7236328l.1933594-.2947998c.0273438-.0280762.0712891-.0842285.1308594-.168457.0605469-.0842285.1171875-.1263428.1738281-.1263428.0722656,0,.2460938.1052856.5175781.3158569s.4453125.3768311.5185547.498291c.0283203.046936.0185547.093689-.0283203.1403809-.1376953.1217651-.3125.1965332-.5244141.2246094v10.036377c0,.2619019-.0302734.4724731-.0908203.6316528-.0585938.1590576-.1816406.2924194-.3652344.4000854-.1855469.1074829-.4570312.1846924-.8164062.2316284h-.0273438c-.0458984,0-.078125-.0328979-.0966797-.0982666-.0644531-.2526855-.1513672-.4165039-.2626953-.491333-.203125-.1403198-.5439453-.2480469-1.0234375-.3228149-.0732422-.0188599-.109375-.0561523-.109375-.1123047,0-.0653687.0273438-.0982666.0820312-.0982666.1201172,0,.2578125.0048218.4150391.0140381.1572266.0094604.3085938.0188599.4560547.0280762.2763672.0280762.4931641.0421143.6503906.0421143.1376953,0,.2275391-.0232544.2695312-.0701904.0410156-.0466919.0615234-.1309204.0615234-.2526855v-6.5552368h-2.9169922v.3649902Zm2.9169922-2.5687866v-1.3615723h-2.9169922v1.3615723h2.9169922Zm-2.9169922.3930664v1.4036865h2.9169922v-1.4036865h-2.9169922Z"/>
          <path class="cls-1" d="m90.8592133,14.6797618c-1.1572266,1.02948-2.3476562,1.8436279-3.5742188,2.4423828-.0087891.0094604-.0224609.0140381-.0410156.0140381-.046875,0-.078125-.0231934-.0966797-.0701294l-.0146484-.0140381c-.0087891-.0092163-.0136719-.0280762-.0136719-.0561523,0-.0372925.0234375-.0701904.0703125-.0982666.7363281-.4397583,1.4902344-1.0128784,2.2597656-1.7195435.7695312-.7064209,1.4443359-1.4387817,2.0253906-2.1967773.5703125-.7579956.9394531-1.4971313,1.1054688-2.2178345.0097656-.0372925.0253906-.0631714.0488281-.0772095.0224609-.0140381.0527344-.0162354.0898438-.007019l1.4785156.4632568c.0371094.0188599.0625.039917.0761719.0631104.0136719.0234985.0068359.0491333-.0205078.0772095-.0371094.046936-.0927734.0796509-.1660156.0982666-.0732422.0188599-.1796875.0375366-.3173828.0561523.5615234.8422241,1.3378906,1.6282959,2.328125,2.3582153.9912109.7299194,2.0859375,1.352356,3.2832031,1.8668823.0742188.0280762.1015625.0750122.0839844.1403809v.0140381c-.0195312.0561523-.0556641.0982666-.1113281.1263428-.1474609.0375366-.2763672.1101074-.3867188.2175903-.1113281.107666-.1933594.2315674-.2490234.3719482-.0283203.0656128-.0791016.0842285-.1513672.0561523-1.1152344-.5987549-2.1230469-1.3356934-3.0214844-2.2108154-.8984375-.8748779-1.5732422-1.7988892-2.0253906-2.7722778-.6171875,1.0200806-1.5039062,2.0447998-2.6601562,3.0740967Zm-.4775391,8.2396851l.0283203.336853v.0701904c0,.0280762-.0058594.0513306-.0136719.0701904-.0556641.0842285-.1601562.1566162-.3115234.2175903-.1523438.06073-.3066406.0912476-.4638672.0912476-.0732422,0-.1308594-.0280762-.171875-.0842285s-.0625-.1217651-.0625-.1965332c.0371094-.430542.0644531-.9637451.0830078-1.6002197v-.9545288c0-1.1040649-.0507812-2.0118408-.1513672-2.7231445v-.0280762c0-.0372925.0078125-.06073.0273438-.0701904.0175781-.0092163.0449219-.0045776.0820312.0140381l1.0234375.4632568h5.5986328l.2080078-.2947998c.0273438-.0372925.0722656-.0958252.1376953-.1754761.0644531-.0794067.1240234-.1193237.1796875-.1193237.0732422,0,.2470703.1052856.5185547.3158569s.4443359.37677.5175781.498291c.0283203.046936.0195312.093689-.0273438.1403809-.1191406.1030884-.2851562.1778564-.4980469.2246094v1.4036865c.0283203,1.1604614.0605469,2.0353394.0976562,2.6248779,0,.0561523-.0195312.1029053-.0556641.1403809-.0830078.0747681-.2070312.1449585-.3730469.2105713-.1660156.0653687-.3134766.0982666-.4423828.0982666-.0917969,0-.15625-.0701904-.1933594-.2105713,0-.0561523.0039062-.1030884.0136719-.1403809l.0410156-.2526245v-.3088379h-5.7919922v.2386475Zm1.8251953-6.5973511c-.6083984.0188599-1.1845703.0795898-1.7285156.1824341h-.0410156c-.0371094,0-.0693359-.0232544-.0966797-.0701904l-.2490234-.491272c-.0097656-.0092163-.0136719-.0280762-.0136719-.0561523,0-.0466919.0322266-.0701904.0966797-.0701904.5068359.046936,1.0693359.0796509,1.6865234.0982666h2.8886719l.2773438-.4070435c.0361328-.0467529.0761719-.1029053.1171875-.168457.0410156-.0653687.0849609-.121521.1308594-.168457.046875-.0466919.0878906-.0701904.125-.0701904.0732422,0,.2578125.1241455.5527344.3720093.2949219.2480469.4746094.437561.5390625.5684814.0097656.046936.0097656.0890503,0,.1263428-.0546875.1030884-.1708984.1544189-.3457031.1544189h-3.9394531Zm-1.8251953,2.6108398v3.3267822h5.7919922v-3.3267822h-5.7919922Z"/>
          <path class="cls-1" d="m114.4627289,15.2973765c.0732422.0842285.1103516.168457.1103516.2526855,0,.1122437-.0419922.2175293-.1240234.3157959-.0839844.0982666-.1894531.1473999-.3183594.1473999-.0546875,0-.2578125-.0280762-.6083984-.0842285s-.7373047-.0842285-1.1611328-.0842285c-.4794922,0-.9306641.0140381-1.3544922.0421143-.0654297.9264526-.1796875,1.6798096-.3457031,2.2599487-.1201172.4024658-.2724609.7347412-.4560547.9966431-.1845703.262085-.40625.3930054-.6640625.3930054-.1464844,0-.2421875-.0232544-.2832031-.0701904-.0410156-.0466919-.0664062-.1168823-.0761719-.2105103-.0273438-.2619019-.1357422-.5264282-.3242188-.7930908-.1894531-.2667236-.3623047-.4794922-.5185547-.6387329-.0654297-.0653076-.0966797-.12146-.0966797-.168396,0-.0280762.0175781-.0421143.0546875-.0421143.046875,0,.1015625.0188599.1660156.0561523.046875.0280762.2070312.1311646.484375.3087769.2753906.1779175.4697266.2667236.5800781.2667236.0917969,0,.1660156-.0280762.2207031-.0842285.3232422-.3274536.5253906-1.0668335.609375-2.2178345-1.2636719.1311646-2.4707031.430542-3.6220703.8983765.0361328,1.7780762.1240234,3.0319824.2626953,3.7619019.0546875.2807007.1582031.4866943.3105469.6176147.1523438.1311646.3203125.2129517.5048828.2456665.1845703.0328979.4189453.0491333.7050781.0491333.3867188,0,.8134766-.0232544,1.2783203-.0701904.4648438-.0467529.859375-.1123047,1.1816406-.1965332.1484375-.0372925.2675781-.0561523.359375-.0561523.1933594,0,.3505859.0515137.4707031.1544189.1191406.1030884.1796875.2199707.1796875.3508911,0,.168457-.0722656.2855835-.2148438.3509521-.1425781.0655518-.3652344.1311646-.6699219.1965332-.1386719.0280151-.3847656.0585327-.7402344.0911865-.3544922.0328979-.7207031.0491333-1.0986328.0491333-1.4189453,0-2.3037109-.2666626-2.6533203-.8001099-.1855469-.2713013-.328125-.9450684-.4296875-2.0213013-.0732422-.720459-.1191406-1.5252075-.1376953-2.4143677l-.3876953.1965332c-.1738281.0842285-.3222656.1567993-.4414062.2175903-.1201172.0609741-.2216797.1101074-.3046875.1473999-.2119141.1122437-.3710938.1872559-.4765625.2245483-.1054688.0375366-.2421875.0561523-.4082031.0561523-.3408203,0-.6171875-.1168823-.8291016-.3508911-.2119141-.2338257-.3173828-.4865112-.3173828-.7579956,0-.1965332.0410156-.2947998.1240234-.2947998.0361328,0,.1054688.0515747.2070312.1544189.1015625.0936279.2050781.168457.3115234.2246094.1054688.0561523.2460938.0842285.421875.0842285.2109375,0,.5195312-.0748291.9257812-.2246094.2578125-.0934448.640625-.2151489,1.1464844-.3649902-.0644531-1.2633057-.1513672-1.979187-.2617188-2.147644-.0742188-.121521-.1542969-.2151489-.2421875-.2807007-.0878906-.0653687-.1953125-.121521-.3242188-.168457-.1660156-.0748291-.25-.1403809-.25-.1965332,0-.0747681.0878906-.1379395.2636719-.1895142.1738281-.0513306.3457031-.0772095.5117188-.0772095.3867188,0,.7041016.1263428.953125.3790283.1103516.1123047.1660156.2480469.1660156.4070435,0,.0656128-.0048828.1217651-.0136719.168457-.0097656.046936-.0195312.0890503-.0273438.1263428-.0371094.1592407-.0556641.7299194-.0556641,1.7125244v.0561523c1.3544922-.3930664,2.5712891-.6643677,3.6494141-.8141479.0087891-.1495972.0136719-.3649902.0136719-.6456909,0-.5053711-.0185547-.9637451-.0546875-1.3756714-.046875-.3555298-.2451172-.6221924-.5957031-.8000488-.0917969-.0467529-.1376953-.0934448-.1376953-.1403809,0-.0653687.0507812-.1169434.1523438-.1544189.1005859-.0372925.2021484-.0561523.3037109-.0561523.1474609,0,.3066406.0234375.4765625.0701904.1708984.046936.3027344.107666.3945312.1824951.1113281.0936279.1982422.1872559.2626953.2807007.0644531.093689.0966797.201355.0966797.322876,0,.0374756-.0273438.1778564-.0830078.4210815l-.0830078.4071045v.0280762c.3408203.2526245.7539062.5007324,1.2373047.7439575.4833984.2434082.8681641.369751,1.1542969.3789673.0927734,0,.1796875-.0045776.2626953-.0140381.0830078-.0092163.15625-.0140381.2207031-.0140381.0927734,0,.1572266.0094604.1933594.0280762.1015625.046936.1894531.1123047.2636719.1965332Zm-2.3359375-.1123047c0-.1028442-.3417969-.383606-1.0234375-.8422241l-.0546875,1.0247192c.2382812-.0186768.4091797-.0280762.5107422-.0280762.3779297,0,.5673828-.0513306.5673828-.1544189Z"/>
        </g>
        <g>
          <path class="cls-1" d="m41.8904633,34.8866099c-.8027344-.7079468-1.0097656-1.6455688-1.0097656-2.4396362,0-.5357666.2070312-1.4829102.953125-2.210022.5087891-.4974976,1.2724609-.8515015,2.5361328-.8515015.4335938,0,.7822266.038269,1.2451172.1052246.3007812.0478516.6035156.0957031.8300781.1052856.0742188,0,.0839844.0477905.0839844.0956421,0,.0765381-.0283203.1626587-.046875.468811-.0097656.2678833-.0097656.7653809-.0195312.880188-.0087891.1339111-.0273438.1817627-.0742188.1817627-.0664062,0-.0761719-.0574341-.0761719-.1817627,0-.2774658-.1318359-.6505737-.3671875-.8323364-.2832031-.2487793-.9433594-.4879761-1.6699219-.4879761-1.046875,0-1.5273438.2965698-1.8105469.5549316-.6132812.5644531-.7539062,1.2532959-.7539062,2.0952148,0,1.5881958,1.2734375,2.9849854,2.9326172,2.9849854.6416016,0,1.1123047-.0669556,1.4423828-.3922729.1699219-.1817627.2636719-.4209595.3115234-.6888428.0185547-.0956421.0478516-.1434937.1035156-.1434937.0478516,0,.0478516.0669556.0478516.1339722,0,.0765381-.1230469.8514404-.1894531,1.0619507-.0566406.1530762-.0839844.1817627-.2167969.2391968-.3300781.1434937-.9609375.1912842-1.4902344.1912842-1.2441406,0-2.0927734-.2869873-2.7617188-.8706055Z"/>
          <path class="cls-1" d="m50.5047211,33.3175791c-.046875,0-.0751953.0287476-.0947266.0765381l-.4140625,1.1959229c-.0947266.2678833-.1601562.5261841-.1601562.6792603,0,.1722412.1035156.2487793.3105469.2487793h.0664062c.0839844,0,.1132812.0286865.1132812.0669556,0,.0478516-.0761719.0669556-.1416016.0669556-.2080078,0-.6416016-.0286865-.7451172-.0286865-.09375,0-.5097656.0286865-.9052734.0286865-.1044922,0-.1513672-.019104-.1513672-.0669556,0-.038269.0380859-.0669556.1132812-.0669556.046875,0,.1328125,0,.1894531-.0095825.4042969-.038269.5654297-.3540039.7255859-.7557983l1.8857422-5.0419922c.1035156-.2774048.1328125-.3252563.1982422-.3252563.0478516,0,.0849609.038269.1884766.3061523.1328125.3157349,1.4140625,3.6547241,1.9140625,4.8505859.3115234.7557983.5849609.880188.7167969.9280396.1230469.0478516.2548828.0478516.3203125.0478516.0664062,0,.1132812.019104.1132812.0669556s-.0371094.0669556-.140625.0669556c-.0947266,0-.8017578,0-1.4335938-.019104-.1796875-.0095825-.2363281-.019165-.2363281-.0669556,0-.0287476.0292969-.0574341.0664062-.0670166.0371094-.019104.09375-.0669556.0371094-.2104492l-.7441406-1.9230347c-.0195312-.0286865-.0380859-.0478516-.0761719-.0478516h-1.7158203Zm1.6025391-.3348389c.0390625,0,.0390625-.0286865.0292969-.0574341l-.7451172-2.1143188c-.0478516-.1339722-.0566406-.1339722-.1044922,0l-.7070312,2.1143188c-.0185547.0383301,0,.0574341.0195312.0574341h1.5078125Z"/>
          <path class="cls-1" d="m57.8474945,33.3079966c0,1.1002808.0371094,1.6551514.1982422,1.8082275.1513672.1339722.3388672.1913452.9892578.1913452.4160156,0,.7929688,0,1-.2678833.0947266-.1434937.1601562-.3348389.1796875-.4783325.0097656-.0765381.0273438-.1148071.0751953-.1148071.0380859,0,.0566406.0286865.0566406.1243896,0,.0956421-.0566406.6409912-.1132812.8610229-.0566406.1913452-.046875.2391968-.4990234.2391968-.6425781,0-1.3496094-.0478516-2.2919922-.0478516-.3115234,0-.5.0286865-.8300781.0286865-.0947266,0-.1513672-.019104-.1513672-.0765381,0-.0286865.0292969-.057373.1044922-.057373s.1513672,0,.2255859-.019165c.1601562-.0286865.2167969-.2200317.2460938-.449646.0566406-.3635864.0371094-1.0236816.0371094-1.760376v-1.4351196c0-1.2628174,0-1.4733276-.0185547-1.7316284-.0185547-.2678833-.0566406-.4401245-.3779297-.4783936-.0566406-.0095825-.1601562-.0095825-.2353516-.0095825-.0654297,0-.1035156-.0286865-.1035156-.0669556,0-.0477905.0478516-.0669556.1416016-.0669556.3964844,0,.9619141.0286865.9804688.0286865.1328125,0,.7070312-.0286865.9707031-.0286865.0957031,0,.1230469.0286865.1230469.0669556s-.046875.0669556-.1035156.0669556c-.0664062,0-.1601562.0095825-.2539062.019165-.2646484.038269-.3212891.1913452-.3398438.468811-.0195312.2583008-.0097656.468811-.0097656,1.7316284v1.4542236Z"/>
          <path class="cls-1" d="m63.964682,33.3079966c0,1.1002808.0371094,1.6551514.1972656,1.8082275.1513672.1339722.3398438.1913452.9902344.1913452.4150391,0,.7929688,0,1-.2678833.09375-.1434937.1601562-.3348389.1787109-.4783325.0097656-.0765381.0283203-.1148071.0751953-.1148071.0380859,0,.0566406.0286865.0566406.1243896,0,.0956421-.0566406.6409912-.1132812.8610229-.0566406.1913452-.046875.2391968-.4990234.2391968-.6416016,0-1.3486328-.0478516-2.2919922-.0478516-.3105469,0-.5.0286865-.8300781.0286865-.09375,0-.1503906-.019104-.1503906-.0765381,0-.0286865.0283203-.057373.1035156-.057373.0761719,0,.1513672,0,.2265625-.019165.1601562-.0286865.2167969-.2200317.2451172-.449646.0566406-.3635864.0380859-1.0236816.0380859-1.760376v-1.4351196c0-1.2628174,0-1.4733276-.0195312-1.7316284-.0185547-.2678833-.0566406-.4401245-.3769531-.4783936-.0566406-.0095825-.1601562-.0095825-.2353516-.0095825-.0664062,0-.1044922-.0286865-.1044922-.0669556,0-.0477905.0478516-.0669556.1425781-.0669556.3955078,0,.9609375.0286865.9804688.0286865.1318359,0,.7070312-.0286865.9707031-.0286865.0947266,0,.1230469.0286865.1230469.0669556s-.046875.0669556-.1035156.0669556c-.0664062,0-.1601562.0095825-.2548828.019165-.2646484.038269-.3212891.1913452-.3398438.468811-.0185547.2583008-.0087891.468811-.0087891,1.7316284v1.4542236Z"/>
        </g>
      </g>
      <g>
        <g>
          <path class="cls-1" d="m15.6406066,20.2359681c-.3590137,0-.6501516-.2911054-.6501516-.6501516v-4.3196396h-2.8953525v4.3196396c0,.3590462-.2911054.6501516-.6501516.6501516s-.6501516-.2911054-.6501516-.6501516v-4.9697912c0-.3590462.2911054-.6501516.6501516-.6501516h4.1956556c.3590462,0,.6501516.2911054.6501516.6501516v4.9697912c0,.3590462-.2911054.6501516-.6501516.6501516Z"/>
          <path class="cls-1" d="m20.1197933,12.8179661h-1.6803167c-.3590416,0-.6501516-.2911054-.6501516-.6501516s.2911099-.6501516.6501516-.6501516h.1107858l-5.0074024-5.007565-5.0772287,5.0773913c-.2536566.2539817-.6653933.2539817-.9193793,0-.2539492-.2539492-.2539492-.6653976,0-.9193468l5.5369508-5.537081c.2438068-.2438068.67554-.2438068.9193468,0l6.5769008,6.5770635c.1860409.1860409.2415963.4653785.1409529.7085677-.1006435.2428641-.3376237.4012736-.60061.4012736Z"/>
          <path class="cls-1" d="m11.3913134,20.2359681h-1.9042571c-.8222185,0-1.4911227-.668876-1.4911227-1.4910902v-4.5913705c0-.3590462.2911335-.6501516.6501516-.6501516.3590419,0,.6501516.2911054.6501516.6501516v4.5913705c0,.1050645.0855556.190787.1908195.190787h1.9042571c.3590462,0,.6501516.2911054.6501516.6501516s-.2911054.6501516-.6501516.6501516Z"/>
          <path class="cls-1" d="m17.598538,20.2359681h-1.9296499c-.3590462,0-.6501516-.2911054-.6501516-.6501516s.2911054-.6501516.6501516-.6501516h1.9296499c.105227,0,.190787-.0857225.190787-.190787v-6.5770635c0-.3590462.2911099-.6501516.6501516-.6501516.3590508,0,.6501516.2911054.6501516.6501516v6.5770635c0,.8222142-.6688759,1.4910902-1.4910901,1.4910902Z"/>
        </g>
        <g>
          <g>
            <path class="cls-1" d="m19.8050224,32.8234554H7.2805676c-1.8581007,0-3.3696706-1.5117325-3.3696706-3.3698007v-5.1120119c0-.3590462.2911054-.6501516.6501516-.6501516s.6501516.2911054.6501516.6501516v5.1120119c0,1.1412436.9282539,2.0694975,2.0693674,2.0694975h12.5244548c1.141081,0,2.0694975-.9282539,2.0694975-2.0694975V3.3698007c0-1.1412436-.9284164-2.0694975-2.0694975-2.0694975H7.2805676c-1.1411135,0-2.0693674.9282539-2.0693674,2.0694975v5.3608899c0,.3590462-.2911054.6501516-.6501516.6501516s-.6501516-.2911054-.6501516-.6501516V3.3698007c0-1.8580682,1.5115699-3.3698007,3.3696706-3.3698007h12.5244548c1.8580728,0,3.3698006,1.5117325,3.3698006,3.3698007v26.0838541c0,1.8580682-1.5117278,3.3698007-3.3698006,3.3698007Z"/>
            <path class="cls-1" d="m22.5246714,27.1628781H4.5610486c-.3590462,0-.6501516-.2911054-.6501516-.6501516s.2911054-.6501516.6501516-.6501516h17.9636228c.3590462,0,.6501516.2911054.6501516.6501516s-.2911054.6501516-.6501516.6501516Z"/>
            <path class="cls-1" d="m14.593505,29.7980726h-2.1014199c-.3590462,0-.6501516-.2911054-.6501516-.6501516s.2911054-.6501516.6501516-.6501516h2.1014199c.3590137,0,.6501516.2911054.6501516.6501516s-.2911379.6501516-.6501516.6501516Z"/>
          </g>
          <path class="cls-1" d="m28.9231706,42.5722184c-.2879196,0-.551101-.1929975-.6280789-.4844279l-2.0775918-7.8684921-14.2163768,3.7409072.8796876,3.8155121c.0807813.3498466-.137442.699043-.4874511.7796943-.3491964.0796761-.6988804-.1374746-.7795317-.4876137l-1.0213881-4.4298078c-.0790584-.3422073.1282424-.6853898.4680766-.7749157l15.4544279-4.0666006c.3460432-.0911187.7022287.115857.7939651.4628429l2.2433155,8.4964085c.0917364.347311-.1154019.7028464-.4625503.7945828-.055718.0146284-.111566.0216175-.1665038.0219101Z"/>
          <path class="cls-1" d="m12.7955758,37.3900552c-.3449054,0-.6323699-.2711132-.6488838-.6193344-.002048-.0368311-.1122162-1.9980784-1.0253865-3.759339-.1653986-.3187368-.0409595-.7111033.2777773-.8765019s.7111033-.0412521.8765018.2777773c1.0523678,2.0295132,1.1655267,4.2050179,1.1698177,4.2967868.0170059.3587211-.2601582.6631546-.6188793.6799935-.0103049.0002926-.0206423.0006176-.0309472.0006176Z"/>
          <path class="cls-1" d="m25.5841595,34.0754849c-.2449169.0003251-.4795241-.1387098-.5896597-.3755276-.7923722-1.6996913-.8061879-3.9603009-.0449255-7.3303941.5304587-2.3488676.5217466-4.5339296.508386-7.8415108-.0022058-.5323766-.004421-1.0911169-.004421-1.6806093,0-.8860266.0222027-1.6758632.0419023-2.3723706.0431701-1.5298067.0802937-2.8510772-.2349323-3.1755029-.0237955-.0244457-.0960226-.098758-.3700013-.098758-1.0110832,0-1.5959921,2.0298383-1.7207562,3.0126724-.0452505.355893-.3715941.6092245-.7261868.5634864-.356023-.0447629-.6084118-.3691886-.5639693-.7253741.0530152-.4247765.5879274-4.1510878,3.0109123-4.1510878.5463549,0,.9845943.1657236,1.3023836.4927174.6982303.7180924.6620493,1.9980784.6023654,4.1183527-.0193697.6882505-.0414147,1.4679123-.0414147,2.3358646,0,.587607.0022153,1.1444293.004421,1.6755382.0131981,3.2742284.0227228,5.6402275-.540471,8.1329087-.6840895,3.0291863-.6983928,5.0926374-.044893,6.4948518.1517454.3254009.0109551.712046-.3144458.8637914-.0889082.0416097-.1824.0609517-.2742942.0609517Z"/>
          <path class="cls-1" d="m7.0946893,18.6690053c-.5087436,0-1.0195027-.175866-1.4328365-.5349122l-3.9064682-3.3923609c-.9104681-.7907794-1.0080925-2.1752122-.2174757-3.085977.3831668-.4409653.9152509-.7066823,1.4979167-.7476093.5828609-.0422273,1.1469974.1472918,1.588097.5304587l3.9066265,3.3923284c.9104723.7908119,1.0080925,2.1752122.2174432,3.0860095-.4320582.4971384-1.0412502.7520628-1.6533029.7520628Zm-3.9036075-6.4662776c-.02126,0-.0423899.0009427-.0638082.0025356-.2363668.0165139-.4522171.1241139-.6074733.3031657-.3206181.3692211-.281093.9307895.0882581,1.2517368l3.9064682,3.3923284c.1787267.1552562.4065073.2320716.6439751.2149401.2363301-.0165139.4522172-.1241464.6074366-.3031657.3207848-.3692211.2812881-.9307895-.0880955-1.2517368l-3.906594-3.3923609c-.1627046-.1412454-.3666855-.2174432-.580167-.2174432Z"/>
          <path class="cls-1" d="m7.7385018,15.0515943c-.4661869,0-.934296-.1612701-1.3130093-.4901818l-3.4423618-2.9891694c-.834437-.7244314-.9239304-1.9932997-.1992064-2.8278993.724919-.8352172,1.9934947-.924418,2.8282286-.199369l3.4423533,2.9891694c.8345996.7250816.9238004,1.9936573.1992064,2.8282244-.3960398.4558863-.9541299.6892257-1.5152107.6892257Zm-3.4396552-5.6974084c-.0168432,0-.0338079.0006176-.050651.0015929-.1877638.0133281-.3590462.0987255-.4823474.2409462-.2547619.2933159-.2233596.7393524.0698263.9939517l3.4424919,2.9891694c.293019.2542743.7387304.222872.9938174-.0701514.2545994-.2933484.2231645-.7390273-.0701839-.9939517l-3.4423208-2.9891694c-.1292219-.1120861-.2911096-.1723877-.4606324-.1723877Z"/>
          <path class="cls-1" d="m5.6112059,25.5098677c-.4506201.0003251-.8810854-.1602949-1.2247555-.4587145l-3.1047013-2.6961786c-.377478-.3276114-.604771-.7828475-.6398467-1.2815463-.0352382-.4987313.1260319-.9812738.4538058-1.3590444.3277739-.3774455.7831726-.6047385,1.2818713-.6399767.4987355-.0352382.9814363.1263245,1.3590443.4542609l3.1045713,2.6958536c.7793692.6768078.8626861,1.8615465.1862034,2.6409157-.3279365.3774455-.7833351.604771-1.2820664.6400092-.0447587.0031532-.0896884.004421-.1341263.004421Zm-3.1013855-5.1396108c-.0134906,0-.0271438.0003251-.0409595.0012678-.152233.0107925-.2912679.0803262-.391257.1955331-.10016.1152394-.1493765.2625637-.138584.4149267.01063.1523955.0800012.2911054.1952405.3910987l3.1048963,2.6965037c.1154019.1003184.2642866.1495024.4148942.1387098.1523955-.0107925.2914304-.0802937.3915863-.1955331.2065206-.2377929.1809697-.5999924-.0569858-.8066756l-3.1045713-2.6958536c-.1050645-.0910862-.2366552-.1399776-.3742598-.1399776Z"/>
          <path class="cls-1" d="m6.7457854,23.0162438c-.5710931.0003251-1.1166353-.2031724-1.5520418-.581268l-4.3767553-3.8005911c-.478414-.4155444-.7664962-.9923589-.8109666-1.6247288-.0446004-.6320449.1596772-1.243805.5754166-1.722219.4152193-.4783815.9923588-.7666587,1.6245704-.8110966.6293467-.0472985,1.2436383.1596772,1.7222148.5755467l4.3767553,3.8005911c.9876127.8577775,1.0933317,2.3590425.2357125,3.3469479-.4155444.478414-.9925214.7663662-1.6245662.8111291-.0569815.0038034-.113809.0056888-.1703397.0056888Zm-4.3716842-7.2456143c-.025551,0-.0511019.0009427-.0768154.0028607-.2857091.0199922-.5463549.1501525-.7341186.366653-.1879588.2161754-.2803128.4926849-.2601582.7780689.0201547.2860342.150315.54668.366653.7346063l4.3767921,3.8005911c.2163337.1876337.4939484.2774522.7782314.2599956.2857048-.0203172.5463506-.1504776.7341144-.366653.3876204-.4463616.3398342-1.1250873-.1064948-1.5126752l-4.3767879-3.8005911c-.1968334-.1707948-.4433342-.2628563-.701416-.2628563Z"/>
        </g>
      </g>
    </g>
  </g>
</svg>