<?xml version="1.0" encoding="UTF-8"?>
<svg id="_レイヤー_2" data-name="レイヤー 2" xmlns="http://www.w3.org/2000/svg" viewBox="0 0 180.2825059 70.3703762">
  <defs>
    <style>
      .cls-1 {
        fill: #fff;
      }
    </style>
  </defs>
  <g id="_レイヤー_1-2" data-name="レイヤー 1">
    <g>
      <g>
        <path class="cls-1" d="m21.1243163,34.6424761h3.4225409c1.1196749,0,2.5368984.1923398,2.5368984,1.4940723v11.72086s-3.8433758,1.3924684-10.8055551,1.3924684c-6.9541991,0-16.2782004-3.7717165-16.2782004-14.2250012,0-10.4189431,9.7064008-14.5064264,16.8928408-14.5064264,3.2199408,0,7.2628222.1916883,7.2628222,1.9761651v3.4909427c-2.7331468-2.1955621-3.8345812-2.5852682-7.98316-2.5852682-4.147113,0-11.5666083,2.6886855-11.5666083,11.3796208,0,8.7014022,9.9585109,13.8694958,18.2248876,10.5995565v-6.6631867c0-1.3963553-.0811052-4.0738033-1.706466-4.0738033Z"/>
        <path class="cls-1" d="m73.1645264,48.5525026h8.7968126c-2.4365754-.8931341-3.4345925-3.7678078-4.2322896-5.8631877-.8253836-2.0875626-7.1864399-17.2921776-7.900426-19.4002607-.7022601-2.0779537-1.7185177-2.0779537-2.5225665-2.0779537h-5.0583247c2.4380412.7967199,1.1092562,2.4929256.7092631,3.6738365-.4038973,1.2040373-8.9041433,21.880646-8.9041433,21.880646-2.9383526-.7897169-10.3005164-11.4433435-10.3005164-11.4433435,9.817794-2.7833083,8.2934075-14.111139-1.2937742-14.111139h-11.0193927c2.2139434.4810938,2.0134605,2.7855883,2.0134605,4.5614334v18.8141211c0,2.5860826-.8118661,3.2707536-2.1080832,3.9658477h8.0658938c-2.2139434-.9877568-1.6278038-3.2795481-1.6278038-4.3586704v-20.2948606h4.3586705c2.3180121,0,4.0349012,2.7880312,4.0349012,4.6853712,0,3.0624533-2.4238723,4.2640258-4.8500246,5.1633706-2.4191493.8835253-1.1069717,2.8756508,0,4.4786996,1.1323781,1.5849711,4.3562276,6.056483,6.2734368,8.243413,1.9276282,2.1795795,3.6182966,2.0826767,4.553449,2.0826767h7.2787825c-2.8222278-.8931341-1.3201578-3.0743422-.9265164-4.1590018.4040558-1.1182091,2.2377212-5.7798243,2.2377212-5.7798243h10.8993588s1.3177148,3.3741926,2.5289181,6.3641724c1.2165777,2.9948657.3060173,3.382151-1.0068069,3.5746537Zm-11.32004-13.1172153l4.1614448-10.6513247,4.4246294,10.6513247h-8.5860742Z"/>
        <path class="cls-1" d="m161.6489742,48.5525026h8.8103279c-2.4277737-.8931341-3.4401298-3.7678078-4.2313125-5.8631877-.8103933-2.0875626-7.1841598-17.2921776-7.8878857-19.4002607-.7133347-2.0779537-1.7185177-2.0779537-2.5303838-2.0779537h-5.0480577c2.4302171.7967199,1.1085936,2.4929256.7117061,3.6738365-.4167701,1.2040373-8.8969841,21.880646-8.8969841,21.880646-.5693649,1.2898655-1.3996343,1.3208092-1.9045059,1.7869197h7.2579362c-2.8302124-.8931341-1.3041973-3.0743422-.9136547-4.1590018.3895654-1.1182091,2.2202949-5.7798243,2.2202949-5.7798243h10.9286784s1.3185291,3.3741926,2.5232179,6.3641724c1.1952428,2.9948657.291034,3.382151-1.039377,3.5746537Zm-11.2928376-13.1172153l4.1287029-10.6513247,4.4612733,10.6513247h-8.5899762Z"/>
        <path class="cls-1" d="m130.5581607,49.0700774c1.0131633-.9128404,1.926818-1.6030487,1.926818-4.7871815v-18.7950446c0-1.4911627-.0778417-3.1802024-1.926818-3.7956572h7.7963573c-.8038859.7061688-1.7637933,1.59686-1.7637933,3.5904513v19.0002505c0,1.6929701-.368882,4.1844299,1.8870797,4.7871815h-7.9196437Z"/>
        <path class="cls-1" d="m88.7158694,27.5752511s-.0993457,15.0137409-.0993457,16.7076449c0,1.6929701.2226321,4.1844299,2.438204,4.7871815h-7.3885514c1.0187006-.9128404,1.8291009-1.6030487,1.8291009-4.7871815,0-3.1736663.1892454-17.3152823.1892454-18.7950446,0-1.4911627-.1892454-3.1802024-2.0183463-3.7956572h5.6692193l16.967594,20.9971207v-17.1100981c0-1.0926398.2123774-3.1808539-2.1103632-3.9769223h7.5776339c-.9129976.7053545-2.2440728.9900369-2.2440728,3.8855569v24.6797518s-2.0930999.3832138-5.536487-3.6977772c-3.4424099-4.0715451-15.2738312-18.8945748-15.2738312-18.8945748Z"/>
        <path class="cls-1" d="m137.007488,70.2302228c-22.2273787-18.4325359-30.7211103-40.1333824-.3260493-69.7585957.9454191-.9105831,1.8567874-.3666247,1.1069717.4827224-13.3351243,14.9788885-28.174766,38.9690834-.3102517,68.3542383.4390754.4700192.263999,1.4186892-.4706706.9216349Z"/>
      </g>
      <path class="cls-1" d="m176.5466734,48.789807c-2.0599429,0-3.7358325-1.6758896-3.7358325-3.7358325s1.6758896-3.7358325,3.7358325-3.7358325,3.7358325,1.6758896,3.7358325,3.7358325-1.6758896,3.7358325-3.7358325,3.7358325Zm0-6.9972736c-1.7984253,0-3.2614411,1.4630158-3.2614411,3.2614411s1.4630158,3.2614411,3.2614411,3.2614411,3.2614411-1.4630158,3.2614411-3.2614411-1.4630158-3.2614411-3.2614411-3.2614411Z"/>
      <path class="cls-1" d="m177.4477392,47.0807934c-.0824626-.0769033-.1320328-.1373604-.1320328-.4287591v-.4838885c0-.2858394-.0877902-.6597006-.5167809-.6597006h-1.0280025v1.5723482h-.7421632v-4.013333h1.8910799c.7477224,0,1.2371702.4618831,1.2371702,1.0884596,0,.2640655-.0880218.505894-.2473877.6872653-.1540382.1760437-.286071.2473877-.6268082.324291.3903074.0551295.7697279.1704844.7697279.9237661v.4067536c0,.401426.148479.505894.2582746.5827973h-.8630774Zm-.6268082-3.3865248h-1.050008v1.1873684h.9290938c.4123129,0,.6652599-.2142637.6652599-.6265766,0-.3629743-.2144953-.5607918-.5443456-.5607918Z"/>
    </g>
  </g>
</svg>